<?xml version="1.0" encoding="UTF-8" standalone="no"?>
<svg width="400px" height="320px" viewBox="0 0 400 320" version="1.1" xmlns="http://www.w3.org/2000/svg" xmlns:xlink="http://www.w3.org/1999/xlink">
    <!-- Generator: Sketch 42 (36781) - http://www.bohemiancoding.com/sketch -->
    <title>chart2</title>
    <desc>Created with Sketch.</desc>
    <defs>
        <path d="M150.103093,149.77895 L62.0640134,28.6056102 C88.8338528,9.15703668 117.015584,0 150.103093,0 L150.103093,149.77895 Z" id="path-1"></path>
        <mask id="mask-2" maskContentUnits="userSpaceOnUse" maskUnits="objectBoundingBox" x="0" y="0" width="88.0390794" height="149.77895" fill="white">
            <use xlink:href="#path-1"></use>
        </mask>
        <path d="M150.103093,149.77895 L7.65475905,196.065931 C-12.7942939,133.126109 8.52745145,67.5058739 62.0640134,28.6056102 L150.103093,149.77895 Z" id="path-3"></path>
        <mask id="mask-4" maskContentUnits="userSpaceOnUse" maskUnits="objectBoundingBox" x="0" y="0" width="150.102904" height="167.460321" fill="white">
            <use xlink:href="#path-3"></use>
        </mask>
        <path d="M150.103093,149.77895 L238.142172,270.955406 C171.219132,319.57684 77.5511868,304.741069 28.9297531,237.818029 C19.2054663,224.431551 12.7693599,211.796212 7.65475905,196.065931 L150.103093,149.77895 Z" id="path-5"></path>
        <mask id="mask-6" maskContentUnits="userSpaceOnUse" maskUnits="objectBoundingBox" x="0" y="0" width="230.487413" height="149.79174" fill="white">
            <use xlink:href="#path-5"></use>
        </mask>
        <path d="M150.103093,149.77895 L150.103093,0 C232.824982,0 299.885159,67.0601774 299.885159,149.77895 C299.885159,199.41333 278.295373,241.782546 238.142172,270.955406 L150.103093,149.77895 Z" id="path-7"></path>
        <mask id="mask-8" maskContentUnits="userSpaceOnUse" maskUnits="objectBoundingBox" x="0" y="0" width="149.782067" height="270.955406" fill="white">
            <use xlink:href="#path-7"></use>
        </mask>
        <path d="M254.4,142.384 C254.4,145.552 251.968,148 248.448,148 L244.272,148 L244.272,136.8 L248.448,136.8 C251.968,136.8 254.4,139.216 254.4,142.384 Z M252.336,142.416 C252.336,140.208 250.8,138.592 248.448,138.592 L246.24,138.592 L246.24,146.208 L248.448,146.208 C250.8,146.208 252.336,144.624 252.336,142.416 Z M258.032,144.464 C258.256,145.84 259.216,146.608 260.464,146.608 C261.408,146.608 262.08,146.256 262.752,145.6 L263.888,146.608 C263.088,147.568 261.984,148.192 260.432,148.192 C257.984,148.192 256.096,146.416 256.096,143.792 C256.096,141.36 257.808,139.376 260.224,139.376 C262.912,139.376 264.272,141.488 264.272,143.936 C264.272,144.112 264.256,144.272 264.24,144.464 L258.032,144.464 Z M258.016,143.184 L262.352,143.184 C262.224,141.936 261.488,140.96 260.208,140.96 C259.024,140.96 258.192,141.872 258.016,143.184 Z M269.776,145.76 L267.504,139.552 L265.424,139.552 L268.896,148.064 L270.64,148.064 L274.096,139.552 L272.064,139.552 L269.776,145.76 Z M277.216,144.464 C277.44,145.84 278.4,146.608 279.648,146.608 C280.592,146.608 281.264,146.256 281.936,145.6 L283.072,146.608 C282.272,147.568 281.168,148.192 279.616,148.192 C277.168,148.192 275.28,146.416 275.28,143.792 C275.28,141.36 276.992,139.376 279.408,139.376 C282.096,139.376 283.456,141.488 283.456,143.936 C283.456,144.112 283.44,144.272 283.424,144.464 L277.216,144.464 Z M277.2,143.184 L281.536,143.184 C281.408,141.936 280.672,140.96 279.392,140.96 C278.208,140.96 277.376,141.872 277.2,143.184 Z M287.456,148 L287.456,136.32 L285.52,136.32 L285.52,148 L287.456,148 Z M298.528,143.776 C298.528,146.192 296.608,148.192 294,148.192 C291.424,148.192 289.52,146.224 289.52,143.808 C289.52,141.376 291.44,139.376 294.032,139.376 C296.624,139.376 298.528,141.344 298.528,143.776 Z M296.592,143.808 C296.592,142.304 295.52,141.072 294,141.072 C292.448,141.072 291.456,142.288 291.456,143.776 C291.456,145.28 292.528,146.512 294.032,146.512 C295.6,146.512 296.592,145.296 296.592,143.808 Z M309.232,143.776 C309.232,146.592 307.312,148.176 305.296,148.176 C303.904,148.176 303.024,147.472 302.432,146.688 L302.432,150.56 L300.496,150.56 L300.496,139.552 L302.432,139.552 L302.432,140.96 C303.056,140.08 303.936,139.376 305.296,139.376 C307.296,139.376 309.232,140.96 309.232,143.776 Z M307.264,143.776 C307.264,142.112 306.16,141.056 304.848,141.056 C303.536,141.056 302.384,142.128 302.384,143.776 C302.384,145.424 303.536,146.496 304.848,146.496 C306.176,146.496 307.264,145.456 307.264,143.776 Z" id="path-9"></path>
        <filter x="-50%" y="-50%" width="200%" height="200%" filterUnits="objectBoundingBox" id="filter-10">
            <feOffset dx="0" dy="0" in="SourceAlpha" result="shadowOffsetOuter1"></feOffset>
            <feGaussianBlur stdDeviation="1" in="shadowOffsetOuter1" result="shadowBlurOuter1"></feGaussianBlur>
            <feColorMatrix values="0 0 0 0 0.262745098   0 0 0 0 0.101960784   0 0 0 0 0.411764706  0 0 0 0.6 0" type="matrix" in="shadowBlurOuter1"></feColorMatrix>
        </filter>
    </defs>
    <g id="working" stroke="none" stroke-width="1" fill="none" fill-rule="evenodd">
        <g id="chart2">
            <g id="Page-1" transform="translate(50.000000, 10.000000)">
                <path d="M150.103093,149.77895 L62.0640134,28.6056102 C88.8338528,9.15703668 117.015584,0 150.103093,0 L150.103093,149.77895 Z" id="Fill-1" fill="#515151"></path>
                <use id="Stroke-3" stroke="#FFFFFF" mask="url(#mask-2)" stroke-width="2" fill="#B288F7" xlink:href="#path-1"></use>
                <path d="M150.103093,149.77895 L7.65475905,196.065931 C-12.7942939,133.126109 8.52745145,67.5058739 62.0640134,28.6056102 L150.103093,149.77895 Z" id="Fill-5" fill="#929292"></path>
                <use id="Stroke-7" stroke="#FFFFFF" mask="url(#mask-4)" stroke-width="2" fill="#9D72E5" xlink:href="#path-3"></use>
                <use id="Stroke-11" stroke="#FFFFFF" mask="url(#mask-6)" stroke-width="2" fill="#7B45D5" xlink:href="#path-5"></use>
                <use id="Stroke-15" stroke="#FFFFFF" mask="url(#mask-8)" stroke-width="2" fill="#7100D8" xlink:href="#path-7"></use>
            </g>
            <path d="M258.256,107.08 L259.912,107.08 L259.912,118.432 L262.528,118.432 L262.528,120.016 L259.912,120.016 L259.912,124 L258.088,124 L258.088,120.016 L249.232,120.016 L248.752,118.648 L258.256,107.08 Z M258.088,118.432 L258.088,109.768 L251.032,118.432 L258.088,118.432 Z M279.496,115.576 C279.496,120.304 276.712,124.288 272.392,124.288 C268.048,124.288 265.312,120.352 265.312,115.624 C265.312,110.896 268.096,106.912 272.44,106.912 C276.76,106.912 279.496,110.848 279.496,115.576 Z M277.528,115.624 C277.528,111.928 275.536,108.64 272.392,108.64 C269.248,108.64 267.28,111.856 267.28,115.576 C267.28,119.296 269.296,122.56 272.44,122.56 C275.584,122.56 277.528,119.32 277.528,115.624 Z M289.84,111.28 C289.84,113.584 288.304,115.6 286.024,115.6 C283.744,115.6 282.232,113.608 282.232,111.328 C282.232,109.024 283.768,107.008 286.072,107.008 C288.328,107.008 289.84,109 289.84,111.28 Z M298,107.2 L285.688,124 L283.96,124 L296.296,107.2 L298,107.2 Z M299.728,119.872 C299.728,122.176 298.216,124.192 295.912,124.192 C293.656,124.192 292.144,122.2 292.144,119.92 C292.144,117.616 293.68,115.6 295.96,115.6 C298.24,115.6 299.728,117.592 299.728,119.872 Z M288.256,111.328 C288.256,109.624 287.248,108.352 286.024,108.352 C284.704,108.352 283.84,109.648 283.84,111.28 C283.84,112.984 284.824,114.256 286.072,114.256 C287.368,114.256 288.256,112.96 288.256,111.328 Z M298.144,119.92 C298.144,118.216 297.16,116.944 295.912,116.944 C294.616,116.944 293.728,118.24 293.728,119.872 C293.728,121.576 294.712,122.848 295.96,122.848 C297.28,122.848 298.144,121.552 298.144,119.92 Z" id="40%" fill="#FFFFFF"></path>
            <g id="Develop">
                <use fill="black" fill-opacity="1" filter="url(#filter-10)" xlink:href="#path-9"></use>
                <use fill="#FFFFFF" fill-rule="evenodd" xlink:href="#path-9"></use>
            </g>
            <path d="M143.904,34.496 L144.36,36.032 L147.528,35.048 L147.528,50 L149.4,50 L149.4,33.08 L148.008,33.08 L143.904,34.496 Z M167.496,41.576 C167.496,46.304 164.712,50.288 160.392,50.288 C156.048,50.288 153.312,46.352 153.312,41.624 C153.312,36.896 156.096,32.912 160.44,32.912 C164.76,32.912 167.496,36.848 167.496,41.576 Z M165.528,41.624 C165.528,37.928 163.536,34.64 160.392,34.64 C157.248,34.64 155.28,37.856 155.28,41.576 C155.28,45.296 157.296,48.56 160.44,48.56 C163.584,48.56 165.528,45.32 165.528,41.624 Z M177.84,37.28 C177.84,39.584 176.304,41.6 174.024,41.6 C171.744,41.6 170.232,39.608 170.232,37.328 C170.232,35.024 171.768,33.008 174.072,33.008 C176.328,33.008 177.84,35 177.84,37.28 Z M186,33.2 L173.688,50 L171.96,50 L184.296,33.2 L186,33.2 Z M187.728,45.872 C187.728,48.176 186.216,50.192 183.912,50.192 C181.656,50.192 180.144,48.2 180.144,45.92 C180.144,43.616 181.68,41.6 183.96,41.6 C186.24,41.6 187.728,43.592 187.728,45.872 Z M176.256,37.328 C176.256,35.624 175.248,34.352 174.024,34.352 C172.704,34.352 171.84,35.648 171.84,37.28 C171.84,38.984 172.824,40.256 174.072,40.256 C175.368,40.256 176.256,38.96 176.256,37.328 Z M186.144,45.92 C186.144,44.216 185.16,42.944 183.912,42.944 C182.616,42.944 181.728,44.24 181.728,45.872 C181.728,47.576 182.712,48.848 183.96,48.848 C185.28,48.848 186.144,47.552 186.144,45.92 Z" id="10%" fill="#FFFFFF"></path>
            <path d="M146.812,74 L154.668,74 L154.668,72.208 L148.78,72.208 L148.78,62.8 L146.812,62.8 L146.812,74 Z M157.964,70.464 C158.188,71.84 159.148,72.608 160.396,72.608 C161.34,72.608 162.012,72.256 162.684,71.6 L163.82,72.608 C163.02,73.568 161.916,74.192 160.364,74.192 C157.916,74.192 156.028,72.416 156.028,69.792 C156.028,67.36 157.74,65.376 160.156,65.376 C162.844,65.376 164.204,67.488 164.204,69.936 C164.204,70.112 164.188,70.272 164.172,70.464 L157.964,70.464 Z M157.948,69.184 L162.284,69.184 C162.156,67.936 161.42,66.96 160.14,66.96 C158.956,66.96 158.124,67.872 157.948,69.184 Z M174.46,72.272 C174.46,75.264 172.828,76.592 169.916,76.592 C168.524,76.592 167.228,76.24 166.14,75.584 L166.86,74.128 C167.756,74.688 168.716,75.024 169.868,75.024 C171.596,75.024 172.54,74.128 172.54,72.432 L172.54,71.776 C171.836,72.688 170.956,73.328 169.564,73.328 C167.58,73.328 165.724,71.872 165.724,69.36 C165.724,66.848 167.596,65.376 169.564,65.376 C170.988,65.376 171.868,66.032 172.524,66.816 L172.524,65.552 L174.46,65.552 L174.46,72.272 Z M172.556,69.36 C172.556,67.936 171.42,67.008 170.076,67.008 C168.732,67.008 167.676,67.936 167.676,69.344 C167.676,70.752 168.748,71.696 170.076,71.696 C171.42,71.696 172.556,70.752 172.556,69.36 Z M183.964,74 L182.044,74 L182.044,72.96 C181.468,73.648 180.588,74.176 179.308,74.176 C177.708,74.176 176.3,73.264 176.3,71.568 L176.3,71.536 C176.3,69.712 177.756,68.816 179.724,68.816 C180.748,68.816 181.404,68.96 182.06,69.168 L182.06,68.96 C182.06,67.792 181.324,67.152 179.98,67.152 C179.036,67.152 178.332,67.36 177.564,67.68 L177.036,66.128 C177.964,65.712 178.876,65.424 180.252,65.424 C182.748,65.424 183.964,66.736 183.964,68.992 L183.964,74 Z M182.092,70.944 L182.092,70.416 C181.596,70.224 180.908,70.08 180.156,70.08 C178.94,70.08 178.22,70.576 178.22,71.44 L178.22,71.472 C178.22,72.272 178.94,72.72 179.852,72.72 C181.132,72.72 182.092,72 182.092,70.944 Z M188.316,74 L188.316,62.32 L186.38,62.32 L186.38,74 L188.316,74 Z" id="Legal" fill="#FFFFFF"></path>
            <path d="M88.816,107.664 C90.64,107.664 92.2,108.912 92.2,110.88 C92.2,112.56 91.264,113.856 88.696,116.16 L82.6,121.536 L82.6,123 L94.336,123 L94.336,121.272 L85.432,121.272 L89.92,117.288 C92.872,114.72 94.168,113.208 94.168,110.736 C94.168,107.976 92.008,105.96 88.96,105.96 C86.008,105.96 84.424,107.28 82.912,109.536 L84.304,110.544 C85.648,108.672 86.896,107.664 88.816,107.664 Z M111.496,114.576 C111.496,119.304 108.712,123.288 104.392,123.288 C100.048,123.288 97.312,119.352 97.312,114.624 C97.312,109.896 100.096,105.912 104.44,105.912 C108.76,105.912 111.496,109.848 111.496,114.576 Z M109.528,114.624 C109.528,110.928 107.536,107.64 104.392,107.64 C101.248,107.64 99.28,110.856 99.28,114.576 C99.28,118.296 101.296,121.56 104.44,121.56 C107.584,121.56 109.528,118.32 109.528,114.624 Z M121.84,110.28 C121.84,112.584 120.304,114.6 118.024,114.6 C115.744,114.6 114.232,112.608 114.232,110.328 C114.232,108.024 115.768,106.008 118.072,106.008 C120.328,106.008 121.84,108 121.84,110.28 Z M130,106.2 L117.688,123 L115.96,123 L128.296,106.2 L130,106.2 Z M131.728,118.872 C131.728,121.176 130.216,123.192 127.912,123.192 C125.656,123.192 124.144,121.2 124.144,118.92 C124.144,116.616 125.68,114.6 127.96,114.6 C130.24,114.6 131.728,116.592 131.728,118.872 Z M120.256,110.328 C120.256,108.624 119.248,107.352 118.024,107.352 C116.704,107.352 115.84,108.648 115.84,110.28 C115.84,111.984 116.824,113.256 118.072,113.256 C119.368,113.256 120.256,111.96 120.256,110.328 Z M130.144,118.92 C130.144,117.216 129.16,115.944 127.912,115.944 C126.616,115.944 125.728,117.24 125.728,118.872 C125.728,120.576 126.712,121.848 127.96,121.848 C129.28,121.848 130.144,120.552 130.144,118.92 Z" id="20%" fill="#FFFFFF"></path>
            <path d="M74.66,138.968 L74.66,147 L76.628,147 L76.628,135.8 L74.532,135.8 L71.124,141.096 L67.716,135.8 L65.62,135.8 L65.62,147 L67.556,147 L67.556,139 L71.06,144.248 L71.124,144.248 L74.66,138.968 Z M86.372,147 L84.452,147 L84.452,145.96 C83.876,146.648 82.996,147.176 81.716,147.176 C80.116,147.176 78.708,146.264 78.708,144.568 L78.708,144.536 C78.708,142.712 80.164,141.816 82.132,141.816 C83.156,141.816 83.812,141.96 84.468,142.168 L84.468,141.96 C84.468,140.792 83.732,140.152 82.388,140.152 C81.444,140.152 80.74,140.36 79.972,140.68 L79.444,139.128 C80.372,138.712 81.284,138.424 82.66,138.424 C85.156,138.424 86.372,139.736 86.372,141.992 L86.372,147 Z M84.5,143.944 L84.5,143.416 C84.004,143.224 83.316,143.08 82.564,143.08 C81.348,143.08 80.628,143.576 80.628,144.44 L80.628,144.472 C80.628,145.272 81.348,145.72 82.26,145.72 C83.54,145.72 84.5,145 84.5,143.944 Z M90.612,143.784 C90.612,141.544 91.796,140.44 93.492,140.44 L93.604,140.44 L93.604,138.392 C92.116,138.328 91.14,139.192 90.612,140.456 L90.612,138.552 L88.676,138.552 L88.676,147 L90.612,147 L90.612,143.784 Z M99.716,141.992 L103.076,138.552 L100.724,138.552 L97.22,142.296 L97.22,135.32 L95.284,135.32 L95.284,147 L97.22,147 L97.22,144.584 L98.404,143.352 L100.948,147 L103.188,147 L99.716,141.992 Z M106.068,143.464 C106.292,144.84 107.252,145.608 108.5,145.608 C109.444,145.608 110.116,145.256 110.788,144.6 L111.924,145.608 C111.124,146.568 110.02,147.192 108.468,147.192 C106.02,147.192 104.132,145.416 104.132,142.792 C104.132,140.36 105.844,138.376 108.26,138.376 C110.948,138.376 112.308,140.488 112.308,142.936 C112.308,143.112 112.292,143.272 112.276,143.464 L106.068,143.464 Z M106.052,142.184 L110.388,142.184 C110.26,140.936 109.524,139.96 108.244,139.96 C107.06,139.96 106.228,140.872 106.052,142.184 Z M116.596,140.216 L118.868,140.216 L118.868,138.552 L116.596,138.552 L116.596,136.232 L114.66,136.232 L114.66,138.552 L113.588,138.552 L113.588,140.216 L114.66,140.216 L114.66,144.664 C114.66,146.52 115.668,147.144 117.092,147.144 C117.812,147.144 118.356,146.984 118.836,146.712 L118.836,145.128 C118.452,145.32 118.068,145.416 117.636,145.416 C116.98,145.416 116.596,145.112 116.596,144.36 L116.596,140.216 Z M122.932,137.256 L122.932,135.416 L120.852,135.416 L120.852,137.256 L122.932,137.256 Z M122.868,147 L122.868,138.552 L120.932,138.552 L120.932,147 L122.868,147 Z M127.332,142.232 C127.332,140.92 128.116,140.136 129.236,140.136 C130.388,140.136 131.044,140.888 131.044,142.2 L131.044,147 L132.98,147 L132.98,141.624 C132.98,139.656 131.876,138.376 129.972,138.376 C128.66,138.376 127.876,139.064 127.332,139.864 L127.332,138.552 L125.396,138.552 L125.396,147 L127.332,147 L127.332,142.232 Z M143.62,145.272 C143.62,148.264 141.988,149.592 139.076,149.592 C137.684,149.592 136.388,149.24 135.3,148.584 L136.02,147.128 C136.916,147.688 137.876,148.024 139.028,148.024 C140.756,148.024 141.7,147.128 141.7,145.432 L141.7,144.776 C140.996,145.688 140.116,146.328 138.724,146.328 C136.74,146.328 134.884,144.872 134.884,142.36 C134.884,139.848 136.756,138.376 138.724,138.376 C140.148,138.376 141.028,139.032 141.684,139.816 L141.684,138.552 L143.62,138.552 L143.62,145.272 Z M141.716,142.36 C141.716,140.936 140.58,140.008 139.236,140.008 C137.892,140.008 136.836,140.936 136.836,142.344 C136.836,143.752 137.908,144.696 139.236,144.696 C140.58,144.696 141.716,143.752 141.716,142.36 Z" id="Marketing" fill="#FFFFFF"></path>
            <path d="M161.408,217.904 L156.104,223.88 L156.488,225.008 L157.568,225.008 C160.352,225.008 162.272,226.16 162.272,228.272 C162.272,230.264 160.64,231.56 158.6,231.56 C156.536,231.56 154.976,230.648 153.68,229.064 L152.312,230.288 C153.68,232.064 155.768,233.288 158.576,233.288 C161.696,233.288 164.192,231.224 164.192,228.2 C164.192,225.104 161.6,223.688 158.648,223.448 L163.928,217.592 L163.928,216.2 L153.2,216.2 L153.2,217.904 L161.408,217.904 Z M181.496,224.576 C181.496,229.304 178.712,233.288 174.392,233.288 C170.048,233.288 167.312,229.352 167.312,224.624 C167.312,219.896 170.096,215.912 174.44,215.912 C178.76,215.912 181.496,219.848 181.496,224.576 Z M179.528,224.624 C179.528,220.928 177.536,217.64 174.392,217.64 C171.248,217.64 169.28,220.856 169.28,224.576 C169.28,228.296 171.296,231.56 174.44,231.56 C177.584,231.56 179.528,228.32 179.528,224.624 Z M191.84,220.28 C191.84,222.584 190.304,224.6 188.024,224.6 C185.744,224.6 184.232,222.608 184.232,220.328 C184.232,218.024 185.768,216.008 188.072,216.008 C190.328,216.008 191.84,218 191.84,220.28 Z M200,216.2 L187.688,233 L185.96,233 L198.296,216.2 L200,216.2 Z M201.728,228.872 C201.728,231.176 200.216,233.192 197.912,233.192 C195.656,233.192 194.144,231.2 194.144,228.92 C194.144,226.616 195.68,224.6 197.96,224.6 C200.24,224.6 201.728,226.592 201.728,228.872 Z M190.256,220.328 C190.256,218.624 189.248,217.352 188.024,217.352 C186.704,217.352 185.84,218.648 185.84,220.28 C185.84,221.984 186.824,223.256 188.072,223.256 C189.368,223.256 190.256,221.96 190.256,220.328 Z M200.144,228.92 C200.144,227.216 199.16,225.944 197.912,225.944 C196.616,225.944 195.728,227.24 195.728,228.872 C195.728,230.576 196.712,231.848 197.96,231.848 C199.28,231.848 200.144,230.552 200.144,228.92 Z" id="30%" fill="#FFFFFF"></path>
            <path d="M149.38,251.384 C149.38,254.552 146.948,257.192 143.508,257.192 C140.068,257.192 137.668,254.584 137.668,251.416 C137.668,248.248 140.1,245.608 143.54,245.608 C146.98,245.608 149.38,248.216 149.38,251.384 Z M147.316,251.416 C147.316,249.224 145.732,247.416 143.508,247.416 C141.284,247.416 139.732,249.192 139.732,251.384 C139.732,253.576 141.316,255.384 143.54,255.384 C145.764,255.384 147.316,253.608 147.316,251.416 Z M160.276,252.776 C160.276,255.592 158.356,257.176 156.34,257.176 C154.948,257.176 154.068,256.472 153.476,255.688 L153.476,259.56 L151.54,259.56 L151.54,248.552 L153.476,248.552 L153.476,249.96 C154.1,249.08 154.98,248.376 156.34,248.376 C158.34,248.376 160.276,249.96 160.276,252.776 Z M158.308,252.776 C158.308,251.112 157.204,250.056 155.892,250.056 C154.58,250.056 153.428,251.128 153.428,252.776 C153.428,254.424 154.58,255.496 155.892,255.496 C157.22,255.496 158.308,254.456 158.308,252.776 Z M163.732,253.464 C163.956,254.84 164.916,255.608 166.164,255.608 C167.108,255.608 167.78,255.256 168.452,254.6 L169.588,255.608 C168.788,256.568 167.684,257.192 166.132,257.192 C163.684,257.192 161.796,255.416 161.796,252.792 C161.796,250.36 163.508,248.376 165.924,248.376 C168.612,248.376 169.972,250.488 169.972,252.936 C169.972,253.112 169.956,253.272 169.94,253.464 L163.732,253.464 Z M163.716,252.184 L168.052,252.184 C167.924,250.936 167.188,249.96 165.908,249.96 C164.724,249.96 163.892,250.872 163.716,252.184 Z M173.86,253.784 C173.86,251.544 175.044,250.44 176.74,250.44 L176.852,250.44 L176.852,248.392 C175.364,248.328 174.388,249.192 173.86,250.456 L173.86,248.552 L171.924,248.552 L171.924,257 L173.86,257 L173.86,253.784 Z M185.62,257 L183.7,257 L183.7,255.96 C183.124,256.648 182.244,257.176 180.964,257.176 C179.364,257.176 177.956,256.264 177.956,254.568 L177.956,254.536 C177.956,252.712 179.412,251.816 181.38,251.816 C182.404,251.816 183.06,251.96 183.716,252.168 L183.716,251.96 C183.716,250.792 182.98,250.152 181.636,250.152 C180.692,250.152 179.988,250.36 179.22,250.68 L178.692,249.128 C179.62,248.712 180.532,248.424 181.908,248.424 C184.404,248.424 185.62,249.736 185.62,251.992 L185.62,257 Z M183.748,253.944 L183.748,253.416 C183.252,253.224 182.564,253.08 181.812,253.08 C180.596,253.08 179.876,253.576 179.876,254.44 L179.876,254.472 C179.876,255.272 180.596,255.72 181.508,255.72 C182.788,255.72 183.748,255 183.748,253.944 Z M190.26,250.216 L192.532,250.216 L192.532,248.552 L190.26,248.552 L190.26,246.232 L188.324,246.232 L188.324,248.552 L187.252,248.552 L187.252,250.216 L188.324,250.216 L188.324,254.664 C188.324,256.52 189.332,257.144 190.756,257.144 C191.476,257.144 192.02,256.984 192.5,256.712 L192.5,255.128 C192.116,255.32 191.732,255.416 191.3,255.416 C190.644,255.416 190.26,255.112 190.26,254.36 L190.26,250.216 Z M196.596,247.256 L196.596,245.416 L194.516,245.416 L194.516,247.256 L196.596,247.256 Z M196.532,257 L196.532,248.552 L194.596,248.552 L194.596,257 L196.532,257 Z M207.604,252.776 C207.604,255.192 205.684,257.192 203.076,257.192 C200.5,257.192 198.596,255.224 198.596,252.808 C198.596,250.376 200.516,248.376 203.108,248.376 C205.7,248.376 207.604,250.344 207.604,252.776 Z M205.668,252.808 C205.668,251.304 204.596,250.072 203.076,250.072 C201.524,250.072 200.532,251.288 200.532,252.776 C200.532,254.28 201.604,255.512 203.108,255.512 C204.676,255.512 205.668,254.296 205.668,252.808 Z M211.508,252.232 C211.508,250.92 212.292,250.136 213.412,250.136 C214.564,250.136 215.22,250.888 215.22,252.2 L215.22,257 L217.156,257 L217.156,251.624 C217.156,249.656 216.052,248.376 214.148,248.376 C212.836,248.376 212.052,249.064 211.508,249.864 L211.508,248.552 L209.572,248.552 L209.572,257 L211.508,257 L211.508,252.232 Z" id="Operation" fill="#FFFFFF"></path>
        </g>
    </g>
</svg>