<?xml version="1.0" encoding="UTF-8" standalone="no"?>
<svg width="400px" height="320px" viewBox="0 0 400 320" version="1.1" xmlns="http://www.w3.org/2000/svg" xmlns:xlink="http://www.w3.org/1999/xlink">
    <!-- Generator: Sketch 42 (36781) - http://www.bohemiancoding.com/sketch -->
    <title>chart1</title>
    <desc>Created with Sketch.</desc>
    <defs></defs>
    <g id="working" stroke="none" stroke-width="1" fill="none" fill-rule="evenodd">
        <g id="chart1">
            <g id="Page-1" transform="translate(50.000000, 10.000000)" stroke="#FFFFFF" stroke-width="2">
                <path d="M150.189852,150.188325 L150.189852,299.616561 C67.6641297,299.616561 0.764669955,232.714047 0.764669955,150.188325 C0.764669955,67.6656566 67.6641297,0.763143058 150.189852,0.763143058 L150.189852,150.188325 Z" id="Stroke-3" fill="#00DD9C"></path>
                <path d="M150.189852,150.188325 L150.189852,0.763143058 C232.715574,0.763143058 299.615034,67.6656566 299.615034,150.188325 C299.615034,232.714047 232.715574,299.616561 150.189852,299.616561 L150.189852,150.188325 Z" id="Stroke-7" fill="#7100D8"></path>
            </g>
            <path d="M228.372,143.116 L230.132,144.26 C232.068,143.204 234.224,142.324 237.084,142.324 C242.056,142.324 245.532,145.36 245.532,149.672 C245.532,154.028 242.144,157.46 237.26,157.46 C234.004,157.46 230.792,155.7 228.02,152.928 L226.392,154.556 C229.076,157.284 232.992,159.528 237.172,159.528 C243.376,159.528 247.908,155.436 247.908,149.584 C247.908,144.04 243.288,140.256 237.348,140.256 C234.488,140.256 232.508,140.96 230.528,141.928 L231.276,130.4 L246.544,130.4 L246.544,128.2 L229.252,128.2 L228.372,143.116 Z M278.884,143.556 C278.884,152.092 273.912,159.528 266.08,159.528 C258.248,159.528 253.364,152.18 253.364,143.644 C253.364,135.108 258.336,127.672 266.168,127.672 C274,127.672 278.884,135.02 278.884,143.556 Z M276.508,143.644 C276.508,136.428 272.46,129.74 266.08,129.74 C259.7,129.74 255.74,136.34 255.74,143.556 C255.74,150.772 259.788,157.46 266.168,157.46 C272.548,157.46 276.508,150.86 276.508,143.644 Z M297.716,135.68 C297.716,139.86 294.988,143.6 290.896,143.6 C286.848,143.6 284.164,139.904 284.164,135.768 C284.164,131.588 286.892,127.848 290.984,127.848 C295.032,127.848 297.716,131.544 297.716,135.68 Z M312.368,128.2 L289.752,159 L287.376,159 L309.992,128.2 L312.368,128.2 Z M315.58,151.432 C315.58,155.612 312.852,159.352 308.76,159.352 C304.712,159.352 302.028,155.656 302.028,151.52 C302.028,147.34 304.756,143.6 308.848,143.6 C312.896,143.6 315.58,147.296 315.58,151.432 Z M295.428,135.768 C295.428,132.248 293.36,129.74 290.896,129.74 C288.3,129.74 286.452,132.336 286.452,135.68 C286.452,139.2 288.52,141.708 290.984,141.708 C293.58,141.708 295.428,139.112 295.428,135.768 Z M313.292,151.52 C313.292,148 311.224,145.492 308.76,145.492 C306.164,145.492 304.316,148.088 304.316,151.432 C304.316,154.952 306.384,157.46 308.848,157.46 C311.444,157.46 313.292,154.864 313.292,151.52 Z" id="50%" fill="#FFFFFF"></path>
            <path d="M91.372,143.116 L93.132,144.26 C95.068,143.204 97.224,142.324 100.084,142.324 C105.056,142.324 108.532,145.36 108.532,149.672 C108.532,154.028 105.144,157.46 100.26,157.46 C97.004,157.46 93.792,155.7 91.02,152.928 L89.392,154.556 C92.076,157.284 95.992,159.528 100.172,159.528 C106.376,159.528 110.908,155.436 110.908,149.584 C110.908,144.04 106.288,140.256 100.348,140.256 C97.488,140.256 95.508,140.96 93.528,141.928 L94.276,130.4 L109.544,130.4 L109.544,128.2 L92.252,128.2 L91.372,143.116 Z M141.884,143.556 C141.884,152.092 136.912,159.528 129.08,159.528 C121.248,159.528 116.364,152.18 116.364,143.644 C116.364,135.108 121.336,127.672 129.168,127.672 C137,127.672 141.884,135.02 141.884,143.556 Z M139.508,143.644 C139.508,136.428 135.46,129.74 129.08,129.74 C122.7,129.74 118.74,136.34 118.74,143.556 C118.74,150.772 122.788,157.46 129.168,157.46 C135.548,157.46 139.508,150.86 139.508,143.644 Z M160.716,135.68 C160.716,139.86 157.988,143.6 153.896,143.6 C149.848,143.6 147.164,139.904 147.164,135.768 C147.164,131.588 149.892,127.848 153.984,127.848 C158.032,127.848 160.716,131.544 160.716,135.68 Z M175.368,128.2 L152.752,159 L150.376,159 L172.992,128.2 L175.368,128.2 Z M178.58,151.432 C178.58,155.612 175.852,159.352 171.76,159.352 C167.712,159.352 165.028,155.656 165.028,151.52 C165.028,147.34 167.756,143.6 171.848,143.6 C175.896,143.6 178.58,147.296 178.58,151.432 Z M158.428,135.768 C158.428,132.248 156.36,129.74 153.896,129.74 C151.3,129.74 149.452,132.336 149.452,135.68 C149.452,139.2 151.52,141.708 153.984,141.708 C156.58,141.708 158.428,139.112 158.428,135.768 Z M176.292,151.52 C176.292,148 174.224,145.492 171.76,145.492 C169.164,145.492 167.316,148.088 167.316,151.432 C167.316,154.952 169.384,157.46 171.848,157.46 C174.444,157.46 176.292,154.864 176.292,151.52 Z" id="50%" fill="#FFFFFF"></path>
            <path d="M104.76,186 L104.76,207 L108.45,207 L108.45,186 L104.76,186 Z M132.33,203.64 L129.96,201.24 C128.16,202.92 126.51,203.97 123.93,203.97 C119.91,203.97 117,200.61 117,196.47 C117,192.33 119.91,189.03 123.93,189.03 C126.33,189.03 128.13,190.08 129.81,191.64 L132.18,188.91 C130.17,186.99 127.83,185.64 123.96,185.64 C117.6,185.64 113.13,190.53 113.13,196.53 C113.13,202.59 117.69,207.36 123.81,207.36 C127.74,207.36 130.14,205.92 132.33,203.64 Z M157.23,196.47 C157.23,202.41 152.67,207.36 146.22,207.36 C139.77,207.36 135.27,202.47 135.27,196.53 C135.27,190.59 139.83,185.64 146.28,185.64 C152.73,185.64 157.23,190.53 157.23,196.47 Z M153.36,196.53 C153.36,192.42 150.39,189.03 146.22,189.03 C142.05,189.03 139.14,192.36 139.14,196.47 C139.14,200.58 142.11,203.97 146.28,203.97 C150.45,203.97 153.36,200.64 153.36,196.53 Z" id="ICO" fill="#FFFFFF"></path>
            <path d="M231.67,188.58 C231.95,190.3 233.15,191.26 234.71,191.26 C235.89,191.26 236.73,190.82 237.57,190 L238.99,191.26 C237.99,192.46 236.61,193.24 234.67,193.24 C231.61,193.24 229.25,191.02 229.25,187.74 C229.25,184.7 231.39,182.22 234.41,182.22 C237.77,182.22 239.47,184.86 239.47,187.92 C239.47,188.14 239.45,188.34 239.43,188.58 L231.67,188.58 Z M231.65,186.98 L237.07,186.98 C236.91,185.42 235.99,184.2 234.39,184.2 C232.91,184.2 231.87,185.34 231.65,186.98 Z M244.33,187.04 C244.33,185.4 245.31,184.42 246.71,184.42 C248.15,184.42 248.97,185.36 248.97,187 L248.97,193 L251.39,193 L251.39,186.28 C251.39,183.82 250.01,182.22 247.63,182.22 C245.99,182.22 245.01,183.08 244.33,184.08 L244.33,182.44 L241.91,182.44 L241.91,193 L244.33,193 L244.33,187.04 Z M261.85,189.88 L261.85,189.84 C261.85,187.94 260.11,187.24 258.57,186.76 C257.33,186.36 256.19,186.04 256.19,185.28 L256.19,185.24 C256.19,184.62 256.73,184.18 257.67,184.18 C258.55,184.18 259.63,184.56 260.65,185.18 L261.61,183.46 C260.49,182.72 259.05,182.26 257.73,182.26 C255.63,182.26 253.97,183.48 253.97,185.48 L253.97,185.52 C253.97,187.54 255.71,188.18 257.27,188.62 C258.51,189 259.63,189.28 259.63,190.1 L259.63,190.14 C259.63,190.84 259.03,191.28 257.99,191.28 C256.91,191.28 255.67,190.84 254.53,189.98 L253.45,191.62 C254.77,192.66 256.43,193.2 257.93,193.2 C260.13,193.2 261.85,192.1 261.85,189.88 Z M266.81,193 L266.81,190.26 L264.15,190.26 L264.15,193 L266.81,193 Z M280.61,187.72 C280.61,191.24 278.21,193.22 275.69,193.22 C273.95,193.22 272.85,192.34 272.11,191.36 L272.11,193 L269.69,193 L269.69,178.4 L272.11,178.4 L272.11,184.2 C272.89,183.1 273.99,182.22 275.69,182.22 C278.19,182.22 280.61,184.2 280.61,187.72 Z M278.15,187.72 C278.15,185.64 276.77,184.32 275.13,184.32 C273.49,184.32 272.05,185.66 272.05,187.72 C272.05,189.78 273.49,191.12 275.13,191.12 C276.79,191.12 278.15,189.82 278.15,187.72 Z M285.73,180.82 L285.73,178.52 L283.13,178.52 L283.13,180.82 L285.73,180.82 Z M285.65,193 L285.65,182.44 L283.23,182.44 L283.23,193 L285.65,193 Z M299.19,193 L296.77,193 L296.77,191.24 C295.99,192.34 294.89,193.22 293.17,193.22 C290.69,193.22 288.27,191.24 288.27,187.72 C288.27,184.2 290.65,182.22 293.17,182.22 C294.91,182.22 296.01,183.1 296.77,184.08 L296.77,178.4 L299.19,178.4 L299.19,193 Z M296.81,187.72 C296.81,185.66 295.37,184.32 293.75,184.32 C292.09,184.32 290.71,185.6 290.71,187.72 C290.71,189.8 292.11,191.12 293.75,191.12 C295.37,191.12 296.81,189.78 296.81,187.72 Z M244.33,205.28 L248.77,205.28 L248.77,203 L237.41,203 L237.41,205.28 L241.85,205.28 L241.85,217 L244.33,217 L244.33,205.28 Z M252.93,212.58 C253.21,214.3 254.41,215.26 255.97,215.26 C257.15,215.26 257.99,214.82 258.83,214 L260.25,215.26 C259.25,216.46 257.87,217.24 255.93,217.24 C252.87,217.24 250.51,215.02 250.51,211.74 C250.51,208.7 252.65,206.22 255.67,206.22 C259.03,206.22 260.73,208.86 260.73,211.92 C260.73,212.14 260.71,212.34 260.69,212.58 L252.93,212.58 Z M252.91,210.98 L258.33,210.98 C258.17,209.42 257.25,208.2 255.65,208.2 C254.17,208.2 253.13,209.34 252.91,210.98 Z M272.03,217 L269.63,217 L269.63,215.7 C268.91,216.56 267.81,217.22 266.21,217.22 C264.21,217.22 262.45,216.08 262.45,213.96 L262.45,213.92 C262.45,211.64 264.27,210.52 266.73,210.52 C268.01,210.52 268.83,210.7 269.65,210.96 L269.65,210.7 C269.65,209.24 268.73,208.44 267.05,208.44 C265.87,208.44 264.99,208.7 264.03,209.1 L263.37,207.16 C264.53,206.64 265.67,206.28 267.39,206.28 C270.51,206.28 272.03,207.92 272.03,210.74 L272.03,217 Z M269.69,213.18 L269.69,212.52 C269.07,212.28 268.21,212.1 267.27,212.1 C265.75,212.1 264.85,212.72 264.85,213.8 L264.85,213.84 C264.85,214.84 265.75,215.4 266.89,215.4 C268.49,215.4 269.69,214.5 269.69,213.18 Z M283.69,208.08 C283.13,206.96 282.07,206.22 280.55,206.22 C278.93,206.22 278.01,207.1 277.33,208.04 L277.33,206.44 L274.91,206.44 L274.91,217 L277.33,217 L277.33,211.06 C277.33,209.42 278.25,208.42 279.59,208.42 C280.93,208.42 281.73,209.34 281.73,210.98 L281.73,217 L284.15,217 L284.15,211.04 C284.15,209.34 285.09,208.42 286.41,208.42 C287.77,208.42 288.55,209.32 288.55,211 L288.55,217 L290.97,217 L290.97,210.26 C290.97,207.68 289.57,206.22 287.27,206.22 C285.67,206.22 284.55,206.96 283.69,208.08 Z" id="ens.bid-Team" fill="#FFFFFF"></path>
        </g>
    </g>
</svg>