<?xml version="1.0" encoding="UTF-8" standalone="no"?>
<svg width="220px" height="140px" viewBox="0 0 220 140" version="1.1" xmlns="http://www.w3.org/2000/svg" xmlns:xlink="http://www.w3.org/1999/xlink">
    <!-- Generator: Sketch 42 (36781) - http://www.bohemiancoding.com/sketch -->
    <title>work1</title>
    <desc>Created with Sketch.</desc>
    <defs></defs>
    <g id="logo" stroke="none" stroke-width="1" fill="none" fill-rule="evenodd">
        <g id="work1">
            <path d="M55,25.00672 L55,111.99328 C55,113.099341 55.8943015,114 56.9974782,114 L164.002522,114 C165.106512,114 166,113.101561 166,111.99328 L166,25.00672 C166,23.900659 165.105699,23 164.002522,23 L56.9974782,23 C55.8934882,23 55,23.8984391 55,25.00672 Z M53,25.00672 C53,22.795774 54.7870011,21 56.9974782,21 L164.002522,21 C166.211921,21 168,22.7977243 168,25.00672 L168,111.99328 C168,114.204226 166.212999,116 164.002522,116 L56.9974782,116 C54.7880787,116 53,114.202276 53,111.99328 L53,25.00672 Z" id="Rectangle-5" fill="#7100D8" fill-rule="nonzero"></path>
            <path d="M55,38 L166,38 L166,112.006249 C166,113.107367 165.106512,114 164.002522,114 L56.9974782,114 C55.8943015,114 55,113.106918 55,112.006249 L55,38 Z" id="Rectangle-7" fill="#FFFFFF"></path>
            <path d="M55,25.0027601 C55,23.8966663 55.8934882,23 56.9974782,23 L164.002522,23 C165.105699,23 166,23.8935426 166,25.0027601 L166,36 L55,36 L55,25.0027601 Z" id="Rectangle-2" fill="#EBD6FE"></path>
            <circle id="Oval" fill="#7100D8" cx="62" cy="30" r="2"></circle>
            <circle id="Oval" fill="#7100D8" cx="68" cy="30" r="2"></circle>
            <circle id="Oval" fill="#7100D8" cx="74" cy="30" r="2"></circle>
            <text id="Your-Name.eth" font-family="DINNextRoundedLTPro-Medium, DIN Next Rounded LT Pro" font-size="10" font-weight="400" fill="#3F335D">
                <tspan x="78.275" y="53">Your Name.eth</tspan>
            </text>
            <rect id="Rectangle" fill="#7100D8" x="55" y="36" width="111" height="2"></rect>
            <g id="Group-2" transform="translate(61.000000, 95.000000)" fill="#7100D8">
                <path d="M0,3.42319922 L5.98302101,0.00305325485 L5.98912406,2.56328252 L2.25660185,4.69655665 L2.2627049,7.28531633 L4.03208012,6.27373797 L5.49325144,7.09561411 L3.88204687,8.01609536 L2.2667736,8.94008035 L2.2667736,8.94158196 L0.0157662063,10.2279533 L0,3.42319922 Z M6.98493799,0 L12.4817495,3.10180661 L10.2307421,4.38867844 L6.99104104,2.56022927 L6.98493799,0 Z M0.518148742,11.0800116 L2.76915614,9.79364027 L6.00936583,11.6220894 L6.01546888,14.1818182 L0.518148742,11.0800116 Z M10.733735,5.24043644 L12.9842338,3.9535646 L13,10.7588192 L7.01748758,14.1789651 L7.01138453,11.6187359 L10.7433981,9.48546175 L10.7372951,6.89620153 L8.96842847,7.9077799 L7.51539455,7.08139895 L10.733735,5.24193804 L10.733735,5.24043644 Z" id="Combined-Shape"></path>
            </g>
            <circle id="Oval" fill="#EBD6FE" cx="116" cy="87" r="24"></circle>
            <g id="user" transform="translate(97.000000, 71.000000)" fill-rule="nonzero" fill="#7100D8">
                <g id="Layer_1">
                    <g id="Group">
                        <path d="M25.7602041,21.1681385 C22.7364796,18.7993074 19.4854592,17.1477056 18.4109694,16.6278788 L18.4109694,12.3771429 C19.0790816,11.8244156 19.4647959,11.0282251 19.4647959,10.1728139 L19.4647959,5.16536797 C19.4647959,2.31619048 17.0403061,0 14.0579082,0 L12.9283163,0 C9.94591837,0 7.52142857,2.31619048 7.52142857,5.16536797 L7.52142857,10.1793939 C7.52142857,11.0348052 7.90714286,11.8309957 8.5752551,12.3837229 L8.5752551,16.6344589 C7.50076531,17.1542857 4.24285714,18.8058874 1.22602041,21.1747186 C0.482142857,21.7603463 0.0551020408,22.6289177 0.0551020408,23.55671 L0.0551020408,26.9915152 C0.0551020408,27.3534199 0.358163265,27.6429437 0.736989796,27.6429437 C1.11581633,27.6429437 1.41887755,27.3534199 1.41887755,26.9915152 L1.41887755,23.55671 C1.41887755,23.0237229 1.66683673,22.5170563 2.09387755,22.1814719 C5.29668367,19.6678788 8.76811224,17.9965368 9.42933673,17.6872727 C9.73928571,17.5425108 9.94591837,17.2332468 9.94591837,16.9042424 L9.94591837,12.0678788 C9.94591837,11.8507359 9.82882653,11.6467532 9.64285714,11.5283117 C9.1744898,11.2256277 8.89209184,10.7255411 8.89209184,10.1925541 L8.89209184,5.16536797 C8.89209184,3.03341991 10.7035714,1.30285714 12.9352041,1.30285714 L14.0647959,1.30285714 C16.2964286,1.30285714 18.1079082,3.03341991 18.1079082,5.16536797 L18.1079082,10.1793939 C18.1079082,10.718961 17.8255102,11.2190476 17.3571429,11.5151515 C17.1642857,11.6335931 17.0540816,11.8375758 17.0540816,12.0547186 L17.0540816,16.8910823 C17.0540816,17.2200866 17.2538265,17.5293506 17.5706633,17.6741126 C18.2318878,17.9833766 21.7033163,19.6612987 24.9061224,22.1683117 C25.3331633,22.5038961 25.5811224,23.0039827 25.5811224,23.5435498 L25.5811224,26.978355 C25.5811224,27.3402597 25.8841837,27.6297835 26.2630102,27.6297835 C26.6418367,27.6297835 26.944898,27.3402597 26.944898,26.978355 L26.944898,23.5435498 C26.9380102,22.6223377 26.5040816,21.7537662 25.7602041,21.1681385 Z" id="Shape"></path>
                    </g>
                </g>
            </g>
            <path d="M120.987067,106.441901 L120.987067,130.494102 C120.987067,131.042501 120.543202,131.487067 119.987067,131.487067 C119.434782,131.487067 118.987067,131.040958 118.987067,130.494102 L118.987067,106.482067 C105.686901,106.215815 94.987067,95.3509809 94.987067,81.987067 C94.987067,68.4560907 105.956091,57.487067 119.487067,57.487067 C133.018043,57.487067 143.987067,68.4560907 143.987067,81.987067 C143.987067,95.0143457 133.819499,105.666861 120.987076,106.4419 Z M119.487067,104.487067 C131.913474,104.487067 141.987067,94.4134739 141.987067,81.987067 C141.987067,69.5606602 131.913474,59.487067 119.487067,59.487067 C107.06066,59.487067 96.987067,69.5606602 96.987067,81.987067 C96.987067,94.4134739 107.06066,104.487067 119.487067,104.487067 Z" id="Combined-Shape" fill="#3F335D" fill-rule="nonzero" transform="translate(119.487067, 94.487067) rotate(-45.000000) translate(-119.487067, -94.487067) "></path>
        </g>
    </g>
</svg>