<?xml version="1.0" encoding="UTF-8" standalone="no"?>
<svg width="148px" height="38px" viewBox="0 0 148 38" version="1.1" xmlns="http://www.w3.org/2000/svg" xmlns:xlink="http://www.w3.org/1999/xlink">
    <!-- Generator: Sketch 42 (36781) - http://www.bohemiancoding.com/sketch -->
    <title>logo-h-w</title>
    <desc>Created with Sketch.</desc>
    <defs></defs>
    <g id="logo" stroke="none" stroke-width="1" fill="none" fill-rule="evenodd">
        <g id="ci" transform="translate(-50.000000, -124.000000)">
            <g id="logo-h-w" transform="translate(45.000000, 122.000000)">
                <rect id="bound" x="0" y="0" width="158" height="42"></rect>
                <path d="M61.6297562,29.8238779 L61.6297562,26.5775803 L52.6254272,26.5775803 L52.6254272,23.0943267 L60.4449761,23.0943267 L60.4449761,19.8480292 L52.6254272,19.8480292 L52.6254272,16.4832536 L61.5112782,16.4832536 L61.5112782,13.236956 L49,13.236956 L49,29.8238779 L61.6297562,29.8238779 Z M80.7994987,29.8238779 L80.7994987,13.236956 L77.1977671,13.236956 L77.1977671,23.4497608 L69.4256095,13.236956 L66.0608339,13.236956 L66.0608339,29.8238779 L69.6625655,29.8238779 L69.6625655,19.2793347 L77.6953748,29.8238779 L80.7994987,29.8238779 Z M97.9551151,24.9188881 L97.9551151,24.8714969 C97.9551151,21.9806334 96.0594668,20.7721577 92.6946913,19.8954204 C89.8275234,19.1608567 89.1166553,18.8054226 89.1166553,17.7154249 L89.1166553,17.6680337 C89.1166553,16.8623832 89.851219,16.222602 91.2492595,16.222602 C92.6473001,16.222602 94.0927318,16.8386876 95.5618592,17.8575985 L97.4575074,15.1089086 C95.7751196,13.7582593 93.7136022,13 91.2966507,13 C87.9081795,13 85.4912281,14.9904306 85.4912281,17.9997722 L85.4912281,18.0471634 C85.4912281,21.3408521 87.6475279,22.2649806 90.9886079,23.1180223 C93.7609934,23.8288904 94.3296879,24.3028025 94.3296879,25.226931 L94.3296879,25.2743222 C94.3296879,26.2458419 93.429255,26.8382319 91.936432,26.8382319 C90.0407838,26.8382319 88.476874,26.0562771 86.984051,24.8241057 L84.8277512,27.4069264 C86.8181818,29.1840966 89.3536113,30.0608339 91.8653452,30.0608339 C95.4433812,30.0608339 97.9551151,28.2125769 97.9551151,24.9188881 Z M105.63249,29.8238779 L105.63249,26.0325815 L101.793803,26.0325815 L101.793803,29.8238779 L105.63249,29.8238779 Z M124.375712,25.2743222 C124.375712,28.3073593 121.911369,29.8238779 118.167464,29.8238779 L110.276828,29.8238779 L110.276828,13.236956 L117.977899,13.236956 C121.36637,13.236956 123.451584,14.9193438 123.451584,17.5258601 L123.451584,17.5732513 C123.451584,19.4452039 122.456368,20.4878104 121.271588,21.1512873 C123.190932,21.885851 124.375712,22.9995443 124.375712,25.226931 L124.375712,25.2743222 Z M119.826156,18.189337 L119.826156,18.1419458 C119.826156,17.0519481 118.973115,16.4358624 117.4329,16.4358624 L113.831169,16.4358624 L113.831169,19.9428116 L117.195944,19.9428116 C118.807245,19.9428116 119.826156,19.4215083 119.826156,18.189337 Z M120.750285,24.8241057 L120.750285,24.7767145 C120.750285,23.6630212 119.920939,22.9758487 118.048986,22.9758487 L113.831169,22.9758487 L113.831169,26.6249715 L118.167464,26.6249715 C119.778765,26.6249715 120.750285,26.0562771 120.750285,24.8241057 Z M132.384826,29.8238779 L132.384826,13.236956 L128.735703,13.236956 L128.735703,29.8238779 L132.384826,29.8238779 Z M153,21.530417 C153,26.1984507 149.398268,29.8238779 144.185236,29.8238779 L137.716336,29.8238779 L137.716336,13.236956 L144.185236,13.236956 C149.398268,13.236956 153,16.814992 153,21.4830257 L153,21.530417 Z M149.185008,21.5778082 L149.185008,21.530417 C149.185008,18.5921622 147.170882,16.5306448 144.185236,16.5306448 L141.365459,16.5306448 L141.365459,26.5301891 L144.185236,26.5301891 C147.170882,26.5301891 149.185008,24.5160629 149.185008,21.5778082 Z" id="ENS.BID" fill="#FFFFFF"></path>
                <path d="M5,11.1724184 L21.3957787,2.00818116 L21.4125034,8.86828266 L11.183957,14.5843633 L11.2006817,21.5209117 L16.0494503,18.8104004 L20.0536217,21.012607 L15.6383015,23.4790248 L11.2118315,25.9548307 L11.2118315,25.9588542 L5.04320547,29.4056696 L5,11.1724184 Z M24.1414166,2 L39.2047944,10.311251 L33.0361684,13.7594076 L24.1581413,8.86010151 L24.1414166,2 Z M6.41992684,31.688749 L12.5885529,28.2419335 L21.4679737,33.1412397 L21.4846984,40 L6.41992684,31.688749 Z M34.4145622,16.0416823 L40.5817945,12.5935257 L40.625,30.8281181 L24.230615,39.9923553 L24.2138903,33.1322538 L34.441043,27.4161731 L34.4243183,20.4782836 L29.5769434,23.1887948 L25.5950716,20.9745177 L34.4145622,16.0457058 L34.4145622,16.0416823 Z" id="Combined-Shape" fill="#FFFFFF"></path>
            </g>
        </g>
    </g>
</svg>