<?xml version="1.0" encoding="UTF-8" standalone="no"?>
<svg width="177px" height="50px" viewBox="0 0 177 50" version="1.1" xmlns="http://www.w3.org/2000/svg" xmlns:xlink="http://www.w3.org/1999/xlink">
    <!-- Generator: Sketch 42 (36781) - http://www.bohemiancoding.com/sketch -->
    <title>Artboard 2</title>
    <desc>Created with Sketch.</desc>
    <defs></defs>
    <g id="logo" stroke="none" stroke-width="1" fill="none" fill-rule="evenodd">
        <g id="Artboard-2">
            <path d="M66.6297562,33.8238779 L66.6297562,30.5775803 L57.6254272,30.5775803 L57.6254272,27.0943267 L65.4449761,27.0943267 L65.4449761,23.8480292 L57.6254272,23.8480292 L57.6254272,20.4832536 L66.5112782,20.4832536 L66.5112782,17.236956 L54,17.236956 L54,33.8238779 L66.6297562,33.8238779 Z M85.7994987,33.8238779 L85.7994987,17.236956 L82.1977671,17.236956 L82.1977671,27.4497608 L74.4256095,17.236956 L71.0608339,17.236956 L71.0608339,33.8238779 L74.6625655,33.8238779 L74.6625655,23.2793347 L82.6953748,33.8238779 L85.7994987,33.8238779 Z M102.955115,28.9188881 L102.955115,28.8714969 C102.955115,25.9806334 101.059467,24.7721577 97.6946913,23.8954204 C94.8275234,23.1608567 94.1166553,22.8054226 94.1166553,21.7154249 L94.1166553,21.6680337 C94.1166553,20.8623832 94.851219,20.222602 96.2492595,20.222602 C97.6473001,20.222602 99.0927318,20.8386876 100.561859,21.8575985 L102.457507,19.1089086 C100.77512,17.7582593 98.7136022,17 96.2966507,17 C92.9081795,17 90.4912281,18.9904306 90.4912281,21.9997722 L90.4912281,22.0471634 C90.4912281,25.3408521 92.6475279,26.2649806 95.9886079,27.1180223 C98.7609934,27.8288904 99.3296879,28.3028025 99.3296879,29.226931 L99.3296879,29.2743222 C99.3296879,30.2458419 98.429255,30.8382319 96.936432,30.8382319 C95.0407838,30.8382319 93.476874,30.0562771 91.984051,28.8241057 L89.8277512,31.4069264 C91.8181818,33.1840966 94.3536113,34.0608339 96.8653452,34.0608339 C100.443381,34.0608339 102.955115,32.2125769 102.955115,28.9188881 Z M110.63249,33.8238779 L110.63249,30.0325815 L106.793803,30.0325815 L106.793803,33.8238779 L110.63249,33.8238779 Z M129.375712,29.2743222 C129.375712,32.3073593 126.911369,33.8238779 123.167464,33.8238779 L115.276828,33.8238779 L115.276828,17.236956 L122.977899,17.236956 C126.36637,17.236956 128.451584,18.9193438 128.451584,21.5258601 L128.451584,21.5732513 C128.451584,23.4452039 127.456368,24.4878104 126.271588,25.1512873 C128.190932,25.885851 129.375712,26.9995443 129.375712,29.226931 L129.375712,29.2743222 Z M124.826156,22.189337 L124.826156,22.1419458 C124.826156,21.0519481 123.973115,20.4358624 122.4329,20.4358624 L118.831169,20.4358624 L118.831169,23.9428116 L122.195944,23.9428116 C123.807245,23.9428116 124.826156,23.4215083 124.826156,22.189337 Z M125.750285,28.8241057 L125.750285,28.7767145 C125.750285,27.6630212 124.920939,26.9758487 123.048986,26.9758487 L118.831169,26.9758487 L118.831169,30.6249715 L123.167464,30.6249715 C124.778765,30.6249715 125.750285,30.0562771 125.750285,28.8241057 Z M137.384826,33.8238779 L137.384826,17.236956 L133.735703,17.236956 L133.735703,33.8238779 L137.384826,33.8238779 Z M158,25.530417 C158,30.1984507 154.398268,33.8238779 149.185236,33.8238779 L142.716336,33.8238779 L142.716336,17.236956 L149.185236,17.236956 C154.398268,17.236956 158,20.814992 158,25.4830257 L158,25.530417 Z M154.185008,25.5778082 L154.185008,25.530417 C154.185008,22.5921622 152.170882,20.5306448 149.185236,20.5306448 L146.365459,20.5306448 L146.365459,30.5301891 L149.185236,30.5301891 C152.170882,30.5301891 154.185008,28.5160629 154.185008,25.5778082 Z" id="ENS.BID" fill="#3F335D"></path>
            <path d="M8,14.7689702 L24.5683659,5.50826727 L24.5852666,12.4405804 L14.2490513,18.2168303 L14.265952,25.226395 L19.1657603,22.487352 L23.2120809,24.7127397 L18.7502836,27.2051198 L14.2772192,29.7069868 L14.2772192,29.7110527 L8.04366026,33.1941504 L8,14.7689702 Z M27.3429052,5.5 L42.5648449,13.8987379 L36.3312859,17.3831909 L27.359806,12.4323131 L27.3429052,5.5 Z M9.43487344,35.5012621 L15.6684324,32.0181644 L24.6413208,36.9690422 L24.6582215,43.9 L9.43487344,35.5012621 Z M37.7241892,19.6894894 L43.9563397,16.2050365 L44,34.6315719 L27.4330425,43.8922748 L27.4161418,36.9599617 L37.7509487,31.1837118 L37.734048,24.1727918 L32.8356481,26.9118348 L28.8118618,24.6742495 L37.7241892,19.6935553 L37.7241892,19.6894894 Z" id="Combined-Shape" fill="#7100D8"></path>
        </g>
    </g>
</svg>