<?xml version="1.0" encoding="UTF-8" standalone="no"?>
<svg width="220px" height="140px" viewBox="0 0 220 140" version="1.1" xmlns="http://www.w3.org/2000/svg" xmlns:xlink="http://www.w3.org/1999/xlink">
    <!-- Generator: Sketch 42 (36781) - http://www.bohemiancoding.com/sketch -->
    <title>work5</title>
    <desc>Created with Sketch.</desc>
    <defs>
        <path d="M75,75.0384152 L75,21.0012581 C75,19.8959938 75.8982764,19 76.9994177,19 L129.366723,19 L145,34.0469683 L145,80.083511 M145,112.734219 L145,118.999608 C145,120.104394 144.102184,121 142.999201,121 L77.0007992,121 C75.8957883,121 75,120.099682 75,118.999085 L75,112.734219" id="path-1"></path>
        <mask id="mask-2" maskContentUnits="userSpaceOnUse" maskUnits="objectBoundingBox" x="0" y="0" width="70" height="102" fill="white">
            <use xlink:href="#path-1"></use>
        </mask>
        <rect id="path-3" x="83" y="37" width="9" height="9"></rect>
        <mask id="mask-4" maskContentUnits="userSpaceOnUse" maskUnits="objectBoundingBox" x="0" y="0" width="9" height="9" fill="white">
            <use xlink:href="#path-3"></use>
        </mask>
        <rect id="path-5" x="83" y="54" width="9" height="9"></rect>
        <mask id="mask-6" maskContentUnits="userSpaceOnUse" maskUnits="objectBoundingBox" x="0" y="0" width="9" height="9" fill="white">
            <use xlink:href="#path-5"></use>
        </mask>
        <rect id="path-7" x="83" y="71" width="9" height="9"></rect>
        <mask id="mask-8" maskContentUnits="userSpaceOnUse" maskUnits="objectBoundingBox" x="0" y="0" width="9" height="9" fill="white">
            <use xlink:href="#path-7"></use>
        </mask>
        <polygon id="path-9" points="130 21 143 34 130 34"></polygon>
        <mask id="mask-10" maskContentUnits="userSpaceOnUse" maskUnits="objectBoundingBox" x="-2" y="-2" width="17" height="17">
            <rect x="128" y="19" width="17" height="17" fill="white"></rect>
            <use xlink:href="#path-9" fill="black"></use>
        </mask>
    </defs>
    <g id="logo" stroke="none" stroke-width="1" fill="none" fill-rule="evenodd">
        <g id="work5">
            <use id="Rectangle-11" stroke="#7100D8" mask="url(#mask-2)" stroke-width="4" fill="#FFFFFF" xlink:href="#path-1"></use>
            <g id="Group-2" transform="translate(105.000000, 96.000000)" fill="#7100D8">
                <path d="M0,2.89655318 L5.06255624,0.00258352333 L5.06772036,2.16893137 L1.90943234,3.97400947 L1.91459646,6.16449844 L3.4117601,5.30854751 L4.64813583,6.00398117 L3.28480889,6.78284992 L1.9180392,7.56468338 L1.9180392,7.56595396 L0.0133406361,8.65442199 L0,2.89655318 Z M5.91033215,0 L10.5614804,2.62460559 L8.65678182,3.71349714 L5.91549626,2.16634784 L5.91033215,0 Z M0.438433551,9.37539441 L2.34313212,8.28692638 L5.08484801,9.83407568 L5.09001213,12 L0.438433551,9.37539441 Z M9.08239114,4.43421545 L10.9866594,3.34532389 L11,9.10361623 L5.93787411,11.9975859 L5.93270999,9.83123804 L9.09056766,8.02615994 L9.08540354,5.83524745 L7.58867024,6.69119837 L6.35918,5.99195296 L9.08239114,4.43548603 L9.08239114,4.43421545 Z" id="Combined-Shape"></path>
            </g>
            <use id="Rectangle-12" stroke="#7100D8" mask="url(#mask-4)" stroke-width="4" fill="#FFFFFF" xlink:href="#path-3"></use>
            <use id="Rectangle-12" stroke="#7100D8" mask="url(#mask-6)" stroke-width="4" fill="#FFFFFF" xlink:href="#path-5"></use>
            <use id="Rectangle-12" stroke="#7100D8" mask="url(#mask-8)" stroke-width="4" fill="#FFFFFF" xlink:href="#path-7"></use>
            <rect id="Rectangle" fill="#EBD6FE" x="96" y="39" width="39" height="3" rx="1.5"></rect>
            <rect id="Rectangle" fill="#EBD6FE" x="96" y="56" width="39" height="3" rx="1.5"></rect>
            <rect id="Rectangle" fill="#EBD6FE" x="96" y="73" width="39" height="3" rx="1.5"></rect>
            <rect id="Rectangle" fill="#EBD6FE" x="96" y="46" width="28" height="3" rx="1.5"></rect>
            <rect id="Rectangle" fill="#EBD6FE" x="96" y="63" width="35" height="3" rx="1.5"></rect>
            <rect id="Rectangle" fill="#EBD6FE" x="96" y="80" width="35" height="3" rx="1.5"></rect>
            <g id="Rectangle-13">
                <use fill="#EBD6FE" fill-rule="evenodd" xlink:href="#path-9"></use>
                <use stroke="#7100D8" mask="url(#mask-10)" stroke-width="4" stroke-linecap="round" stroke-linejoin="round" xlink:href="#path-9"></use>
            </g>
            <path d="M100.252959,35.001044 C95.7799588,37.743044 92.5559588,41.206044 91.2469588,42.745044 L87.8859588,40.112044 C87.7969588,40.048044 85.9519588,41.686044 86.0009588,41.737044 L92.1219588,47.960044 C92.1669588,48.011044 92.2289588,48.034044 92.2959588,48.034044 C92.3079588,48.034044 92.3269588,48.034044 92.3429588,48.030044 C92.4229588,48.012044 92.4909588,47.958044 92.5209588,47.878044 C93.5069588,45.357044 96.7629588,40.079044 100.920959,36.251044 C100.994959,36.181044 101.020959,36.071044 100.979959,35.976044 C100.978959,35.975044 100.314959,34.963044 100.252959,35.001044 Z" id="Shape" fill="#3F335D" fill-rule="nonzero"></path>
            <path d="M100.252959,53.001044 C95.7799588,55.743044 92.5559588,59.206044 91.2469588,60.745044 L87.8859588,58.112044 C87.7969588,58.048044 85.9519588,59.686044 86.0009588,59.737044 L92.1219588,65.960044 C92.1669588,66.011044 92.2289588,66.034044 92.2959588,66.034044 C92.3079588,66.034044 92.3269588,66.034044 92.3429588,66.030044 C92.4229588,66.012044 92.4909588,65.958044 92.5209588,65.878044 C93.5069588,63.357044 96.7629588,58.079044 100.920959,54.251044 C100.994959,54.181044 101.020959,54.071044 100.979959,53.976044 C100.978959,53.975044 100.314959,52.963044 100.252959,53.001044 Z" id="Shape" fill="#3F335D" fill-rule="nonzero"></path>
            <path d="M100.252959,70.001044 C95.7799588,72.743044 92.5559588,76.206044 91.2469588,77.745044 L87.8859588,75.112044 C87.7969588,75.048044 85.9519588,76.686044 86.0009588,76.737044 L92.1219588,82.960044 C92.1669588,83.011044 92.2289588,83.034044 92.2959588,83.034044 C92.3079588,83.034044 92.3269588,83.034044 92.3429588,83.030044 C92.4229588,83.012044 92.4909588,82.958044 92.5209588,82.878044 C93.5069588,80.357044 96.7629588,75.079044 100.920959,71.251044 C100.994959,71.181044 101.020959,71.071044 100.979959,70.976044 C100.978959,70.975044 100.314959,69.963044 100.252959,70.001044 Z" id="Shape" fill="#3F335D" fill-rule="nonzero"></path>
            <g id="colored_loan-63" transform="translate(49.000000, 76.000000)" fill-rule="nonzero" fill="#3F335D">
                <g id="Layer_1">
                    <path d="M23.1252837,15.0077658 C23.8761069,15.0482165 24.475637,14.8169831 24.8215458,14.391121 C25.2737624,13.834379 24.934192,13.2376545 23.3116537,13.0237146 C21.5610941,12.8235552 20.0016608,12.1111089 19.7008356,10.5485439 C19.4748542,9.38035078 20.0833449,8.03997467 21.242815,7.40100649 C21.4862091,7.2668753 21.7439871,7.16609142 22.0148378,7.09887029 C22.011964,7.06960383 22.0103496,7.03996215 22.01005,7.0099995 L22.00005,6.0099995 C21.9945274,5.45774236 22.4377434,5.00557257 22.9900005,5.00005 C23.5422576,4.99452742 23.9944274,5.43774336 23.99995,5.9900005 L24.00995,6.9900005 C24.0104944,7.04444094 24.0066781,7.09790876 23.9988266,7.15007199 C24.741065,7.34099235 25.5371354,7.71227783 26.3710452,8.26655577 C26.8309965,8.57227334 26.9560277,9.19297061 26.6503101,9.65292193 C26.3445925,10.1128732 25.7238953,10.2379044 25.2639439,9.93218684 C23.8282444,8.97791504 22.8112482,8.82025461 22.2081131,9.15263413 C21.8170422,9.368148 21.6014422,9.84306908 21.6646021,10.1695708 C21.7343706,10.5319664 22.6054678,10.9299379 23.5558882,11.0387574 C26.6092972,11.4410854 27.9214428,13.7469089 26.3739597,15.6520773 C25.7941982,16.365845 24.9662058,16.8072425 24.0047608,16.9496535 L24.0099875,17.9950001 C24.0127489,18.5472779 23.5672778,18.9972261 23.0149999,18.9999875 C22.4627221,19.0027489 22.0127739,18.5572778 22.0100125,18.0049999 L22.0042069,16.8438869 C21.1655351,16.6468016 20.2915189,16.2611491 19.4350195,15.6746712 C18.979327,15.3626411 18.8628656,14.7402789 19.1748957,14.2845864 C19.4869258,13.8288939 20.109288,13.7124325 20.5649805,14.0244626 C21.4548121,14.6337644 22.3002668,14.9378538 23.0171355,15.000142 C23.0536921,15.000753 23.0897754,15.0033278 23.1252837,15.0077658 Z" id="Combined-Shape"></path>
                    <path d="M15.6258224,18.4345006 C12.7815757,15.3883673 12.1879811,10.9216192 14.139383,7.26257616 C16.0945998,3.59637985 20.1863692,1.52595205 24.3682866,2.09271075 C28.5476129,2.65911826 31.912001,5.73669207 32.7833273,9.78140635 C33.6538084,13.8221967 31.8506593,17.9673044 28.2694501,20.1456392 C27.7975997,20.4326507 27.6477581,21.0478299 27.9347696,21.5196803 C28.2217811,21.9915307 28.8369603,22.1413723 29.3088107,21.8543608 C33.6147297,19.2352083 35.7890263,14.2369006 34.7384753,9.36022162 C33.6887695,4.4874666 29.6464506,0.789755655 24.6368832,0.110828846 C19.6299071,-0.567746785 14.7251599,1.91404629 12.3746596,6.32143264 C10.0203443,10.7359722 10.7370698,16.1292696 14.1639965,19.799442 C14.5409147,20.2031141 15.1737081,20.2248024 15.5773802,19.8478843 C15.9810523,19.4709661 16.0027406,18.8381727 15.6258224,18.4345006 Z" id="Shape"></path>
                    <path d="M7,20 L7,37 C7,37.5522847 7.44771525,38 8,38 C8.55228475,38 9,37.5522847 9,37 L9,20 C9,19.4477153 8.55228475,19 8,19 C7.44771525,19 7,19.4477153 7,20 Z" id="Shape"></path>
                    <path d="M3.33333333,36 C2.85083607,36 2,35.1090364 2,34.5907864 L2,22.3454162 C2,21.4377289 2.3085654,20.9845454 3.0553665,21.000456 L8,21.0006828 C8.55228475,21.0006828 9,20.5529676 9,20.0006828 C9,19.4483981 8.55228475,19.0006828 8,19.0006828 L3.07666667,19.0006828 C1.01641077,18.9565622 0,20.4493435 0,22.3454162 L0,34.5907864 C0,36.1935148 1.72512408,38 3.33333333,38 C3.88561808,38 4.33333333,37.5522847 4.33333333,37 C4.33333333,36.4477153 3.88561808,36 3.33333333,36 Z" id="Shape"></path>
                    <path d="M22.2013673,34.954849 L8.20291593,32.0539913 C7.66212083,31.9419239 7.13287121,32.2894764 7.02080384,32.8302715 C6.90873646,33.3710666 7.25628896,33.9003162 7.79708407,34.0123836 L22.1138085,36.9791962 C22.3206748,37.0220644 22.5358031,36.9983165 22.7283379,36.9113585 L42.1498439,28.1396692 C43.7752851,27.3335441 44.4477077,25.4565864 43.6876614,23.8714184 C42.9380447,22.3080023 41.0649239,21.5956939 39.4273386,22.232285 L29.1169098,25.8756519 L17.8186827,25.8756519 C17.2663979,25.8756519 16.8186827,26.3233671 16.8186827,26.8756519 C16.8186827,27.4279366 17.2663979,27.8756519 17.8186827,27.8756519 L29.2883975,27.8756519 C29.4019088,27.8756519 29.5145916,27.8563257 29.6216157,27.8185016 L40.1228805,24.107187 C40.8256562,23.8345086 41.591611,24.1257851 41.8842451,24.7361089 C42.1664497,25.3246806 41.9160581,26.0236079 41.2935977,26.3325977 L22.2013673,34.954849 Z" id="Shape"></path>
                    <path d="M8,23 L24,23 C24.5522847,23 25,22.5522847 25,22 C25,21.4477153 24.5522847,21 24,21 L8,21 C7.44771525,21 7,21.4477153 7,22 C7,22.5522847 7.44771525,23 8,23 Z" id="Shape"></path>
                </g>
            </g>
            <path d="M170.688,99.872 C169.938,98.309 168.065,97.596 166.428,98.233 L156.117,101.876 L144.819,101.876 C144.267,101.876 143.819,102.324 143.819,102.876 C143.819,103.428 144.267,103.876 144.819,103.876 L156.289,103.876 C156.402,103.876 156.515,103.857 156.622,103.819 L167.123,100.108 C167.826,99.835 168.592,100.126 168.884,100.737 C169.167,101.325 168.916,102.024 168.294,102.333 L149.202,110.955 L136,108.22 L136,99 L151,99 C151.552,99 152,98.553 152,98 C152,97.448 151.552,97 151,97 L136,97 L136,96 C136,95.448 135.552,95 135,95 C134.998,95 134.997,95.001 134.995,95.001 L130.077,95.001 C128.017,94.957 127,96.45 127,98.346 L127,110.591 C127,112.194 128.725,114.001 130.334,114.001 C130.886,114.001 131.334,113.553 131.334,113.001 C131.334,112.449 130.886,112.001 130.334,112.001 C129.851,112.001 129,111.11 129,110.591 L129,98.346 C129,97.438 129.309,96.985 130.055,97.001 L134,97.001 L134,113 C134,113.553 134.448,114 135,114 C135.552,114 136,113.553 136,113 L136,110.262 L149.114,112.98 C149.321,113.022 149.536,112.999 149.729,112.912 L169.15,104.14 C170.775,103.334 171.448,101.457 170.688,99.872" id="Fill-1" fill="#3F335D" transform="translate(148.999965, 104.500500) scale(-1, 1) translate(-148.999965, -104.500500) "></path>
            <text id=".eth" font-family="DINNextRoundedLTPro-Medium, DIN Next Rounded LT Pro" font-size="16" font-weight="400" fill="#3F335D">
                <tspan x="135.388" y="92">.eth</tspan>
            </text>
        </g>
    </g>
</svg>