<?xml version="1.0" encoding="UTF-8" standalone="no"?>
<svg width="220px" height="140px" viewBox="0 0 220 140" version="1.1" xmlns="http://www.w3.org/2000/svg" xmlns:xlink="http://www.w3.org/1999/xlink">
    <!-- Generator: Sketch 42 (36781) - http://www.bohemiancoding.com/sketch -->
    <title>work6</title>
    <desc>Created with Sketch.</desc>
    <defs>
        <rect id="path-1" x="50" y="26" width="100" height="70" rx="2"></rect>
        <mask id="mask-2" maskContentUnits="userSpaceOnUse" maskUnits="objectBoundingBox" x="-2" y="-2" width="104" height="74">
            <rect x="48" y="24" width="104" height="74" fill="white"></rect>
            <use xlink:href="#path-1" fill="black"></use>
        </mask>
        <rect id="path-3" x="70" y="45" width="92" height="19"></rect>
        <mask id="mask-4" maskContentUnits="userSpaceOnUse" maskUnits="objectBoundingBox" x="0" y="0" width="92" height="19" fill="white">
            <use xlink:href="#path-3"></use>
        </mask>
        <rect id="path-5" x="70" y="69" width="92" height="19"></rect>
        <mask id="mask-6" maskContentUnits="userSpaceOnUse" maskUnits="objectBoundingBox" x="0" y="0" width="92" height="19" fill="white">
            <use xlink:href="#path-5"></use>
        </mask>
        <rect id="path-7" x="70" y="93" width="92" height="19"></rect>
        <mask id="mask-8" maskContentUnits="userSpaceOnUse" maskUnits="objectBoundingBox" x="0" y="0" width="92" height="19" fill="white">
            <use xlink:href="#path-7"></use>
        </mask>
    </defs>
    <g id="logo" stroke="none" stroke-width="1" fill="none" fill-rule="evenodd">
        <g id="work6">
            <g id="Rectangle-14">
                <use fill="#FFFFFF" fill-rule="evenodd" xlink:href="#path-1"></use>
                <use stroke="#7100D8" mask="url(#mask-2)" stroke-width="4" xlink:href="#path-1"></use>
            </g>
            <path d="M50,27.992017 C50,26.8918564 50.8950515,26 51.9975379,26 L148.002462,26 C149.105672,26 150,26.9001762 150,27.992017 L150,37 L50,37 L50,27.992017 Z" id="Rectangle-15" fill="#EBD6FE"></path>
            <rect id="Rectangle" fill="#7100D8" x="50" y="37" width="101" height="2"></rect>
            <path d="M57,34 C55.8954305,34 55,33.1045695 55,32 C55,30.8954305 55.8954305,30 57,30 C58.1045695,30 59,30.8954305 59,32 C59,33.1045695 58.1045695,34 57,34 Z M63,34 C61.8954305,34 61,33.1045695 61,32 C61,30.8954305 61.8954305,30 63,30 C64.1045695,30 65,30.8954305 65,32 C65,33.1045695 64.1045695,34 63,34 Z M69,34 C67.8954305,34 67,33.1045695 67,32 C67,30.8954305 67.8954305,30 69,30 C70.1045695,30 71,30.8954305 71,32 C71,33.1045695 70.1045695,34 69,34 Z" id="Combined-Shape" fill="#7100D8"></path>
            <use id="Rectangle-16" stroke="#3F335D" mask="url(#mask-4)" stroke-width="4" fill="#FFFFFF" xlink:href="#path-3"></use>
            <use id="Rectangle-16" stroke="#3F335D" mask="url(#mask-6)" stroke-width="4" fill="#FFFFFF" xlink:href="#path-5"></use>
            <use id="Rectangle-16" stroke="#3F335D" mask="url(#mask-8)" stroke-width="4" fill="#FFFFFF" xlink:href="#path-7"></use>
            <path d="M173.574835,81.6200034 L165.122347,73.1666869 C164.86337,72.9077104 164.513973,72.7649697 164.152842,72.7649697 C164.093481,72.7649697 164.033569,72.768835 163.974071,72.7767037 C163.551232,72.8321987 163.178505,73.0812357 162.965498,73.4505118 L160.123936,78.3707879 L152,58 L172.368717,66.1250404 L167.448027,68.9671549 C167.078889,69.1801616 166.829852,69.5528889 166.774357,69.9757273 C166.718724,70.3981515 166.862707,70.8225084 167.164202,71.1240034 L175.617104,79.5773199 L173.574835,81.6200034 Z" id="Path" fill="#FFFFFF"></path>
            <path d="M184.352293,79.4345882 L176.193155,71.2751741 L182.014051,67.9127599 C182.468916,67.6499182 182.73369,67.1506017 182.695727,66.6267128 C182.65804,66.1026859 182.32438,65.6464401 181.836384,65.4519317 L155.879104,55.0977061 C155.370125,54.8945007 154.789222,55.0141876 154.401724,55.4015478 C154.014226,55.7891842 153.894539,56.3700865 154.097606,56.8789283 L164.450313,82.8391067 C164.64496,83.3269653 165.101205,83.6607633 165.625232,83.6985882 C166.149259,83.7366892 166.648576,83.4717768 166.911279,83.0167734 L170.273141,77.1958778 L178.432003,85.35543 C178.689047,85.6127498 179.037892,85.7571472 179.401508,85.7571472 C179.765125,85.7571472 180.113832,85.6127498 180.370875,85.35543 L184.352293,81.3735983 C184.887778,80.8381135 184.887778,79.9700731 184.352293,79.4345882 Z" id="Path" fill="#EBD6FE"></path>
            <g id="cursor" transform="translate(148.000000, 54.000000)" fill-rule="nonzero" fill="#3F335D">
                <path d="M30.5964882,24.677303 L22.4373502,16.5178889 L28.2582458,13.1554747 C28.7131111,12.892633 28.9778855,12.3933165 28.9399226,11.8694276 C28.9022357,11.3454007 28.5685758,10.8891549 28.0805791,10.6946465 L2.12329966,0.340420875 C1.61431987,0.137215488 1.03341751,0.256902357 0.645919192,0.644262626 C0.258420875,1.03189899 0.138734007,1.61280135 0.341801347,2.1216431 L10.6945084,28.0818215 C10.8891549,28.5696801 11.3454007,28.9034781 11.8694276,28.941303 C12.3934545,28.979404 12.892771,28.7144916 13.1554747,28.2594882 L16.5173367,22.4385926 L24.6761987,30.5981448 C24.9332424,30.8554646 25.2820875,30.999862 25.6457037,30.999862 C26.0093199,30.999862 26.3580269,30.8554646 26.6150707,30.5981448 L30.5964882,26.6163131 C31.1319731,26.0808283 31.1319731,25.2127879 30.5964882,24.677303 Z M25.6457037,27.6899057 L17.1932155,19.2365892 C16.9342391,18.9776128 16.5848418,18.8348721 16.2237104,18.8348721 C16.1643502,18.8348721 16.1044377,18.8387374 16.0449394,18.8466061 C15.622101,18.902101 15.2493737,19.151138 15.036367,19.5204141 L12.1948047,24.4406902 L4.07086869,4.06990236 L24.4395859,12.1949428 L19.5188956,15.0370572 C19.1497576,15.250064 18.9007205,15.6227912 18.8452256,16.0456296 C18.7895926,16.4680539 18.9335758,16.8924108 19.2350707,17.1939057 L27.6879731,25.6472222 L25.6457037,27.6899057 Z" id="Shape"></path>
            </g>
            <g id="Group-2" transform="translate(54.000000, 81.000000)" fill="#7100D8">
                <path d="M0,2.89655318 L5.06255624,0.00258352333 L5.06772036,2.16893137 L1.90943234,3.97400947 L1.91459646,6.16449844 L3.4117601,5.30854751 L4.64813583,6.00398117 L3.28480889,6.78284992 L1.9180392,7.56468338 L1.9180392,7.56595396 L0.0133406361,8.65442199 L0,2.89655318 Z M5.91033215,0 L10.5614804,2.62460559 L8.65678182,3.71349714 L5.91549626,2.16634784 L5.91033215,0 Z M0.438433551,9.37539441 L2.34313212,8.28692638 L5.08484801,9.83407568 L5.09001213,12 L0.438433551,9.37539441 Z M9.08239114,4.43421545 L10.9866594,3.34532389 L11,9.10361623 L5.93787411,11.9975859 L5.93270999,9.83123804 L9.09056766,8.02615994 L9.08540354,5.83524745 L7.58867024,6.69119837 L6.35918,5.99195296 L9.08239114,4.43548603 L9.08239114,4.43421545 Z" id="Combined-Shape"></path>
            </g>
            <path d="M79.618,55.059 L79.618,57.57 L78.502,57.57 L78.502,55.086 L76,51.27 L77.305,51.27 L79.069,54.06 L80.851,51.27 L82.12,51.27 L79.618,55.059 Z M86.602,55.194 C86.602,56.553 85.522,57.678 84.055,57.678 C82.606,57.678 81.535,56.571 81.535,55.212 C81.535,53.844 82.615,52.719 84.073,52.719 C85.531,52.719 86.602,53.826 86.602,55.194 Z M85.513,55.212 C85.513,54.366 84.91,53.673 84.055,53.673 C83.182,53.673 82.624,54.357 82.624,55.194 C82.624,56.04 83.227,56.733 84.073,56.733 C84.955,56.733 85.513,56.049 85.513,55.212 Z M90.652,55.5 C90.652,56.238 90.211,56.679 89.581,56.679 C88.933,56.679 88.564,56.256 88.564,55.518 L88.564,52.818 L87.475,52.818 L87.475,55.842 C87.475,56.949 88.096,57.669 89.167,57.669 C89.905,57.669 90.346,57.282 90.652,56.832 L90.652,57.57 L91.741,57.57 L91.741,52.818 L90.652,52.818 L90.652,55.5 Z M94.018,55.761 C94.018,54.501 94.684,53.88 95.638,53.88 L95.701,53.88 L95.701,52.728 C94.864,52.692 94.315,53.178 94.018,53.889 L94.018,52.818 L92.929,52.818 L92.929,57.57 L94.018,57.57 L94.018,55.761 Z M100.993,55.626 L97.618,51.27 L96.592,51.27 L96.592,57.57 L97.681,57.57 L97.681,53.088 L101.155,57.57 L102.082,57.57 L102.082,51.27 L100.993,51.27 L100.993,55.626 Z M107.383,57.57 L106.303,57.57 L106.303,56.985 C105.979,57.372 105.484,57.669 104.764,57.669 C103.864,57.669 103.072,57.156 103.072,56.202 L103.072,56.184 C103.072,55.158 103.891,54.654 104.998,54.654 C105.574,54.654 105.943,54.735 106.312,54.852 L106.312,54.735 C106.312,54.078 105.898,53.718 105.142,53.718 C104.611,53.718 104.215,53.835 103.783,54.015 L103.486,53.142 C104.008,52.908 104.521,52.746 105.295,52.746 C106.699,52.746 107.383,53.484 107.383,54.753 L107.383,57.57 Z M106.33,55.851 L106.33,55.554 C106.051,55.446 105.664,55.365 105.241,55.365 C104.557,55.365 104.152,55.644 104.152,56.13 L104.152,56.148 C104.152,56.598 104.557,56.85 105.07,56.85 C105.79,56.85 106.33,56.445 106.33,55.851 Z M112.45,53.556 C112.198,53.052 111.721,52.719 111.037,52.719 C110.308,52.719 109.894,53.115 109.588,53.538 L109.588,52.818 L108.499,52.818 L108.499,57.57 L109.588,57.57 L109.588,54.897 C109.588,54.159 110.002,53.709 110.605,53.709 C111.208,53.709 111.568,54.123 111.568,54.861 L111.568,57.57 L112.657,57.57 L112.657,54.888 C112.657,54.123 113.08,53.709 113.674,53.709 C114.286,53.709 114.637,54.114 114.637,54.87 L114.637,57.57 L115.726,57.57 L115.726,54.537 C115.726,53.376 115.096,52.719 114.061,52.719 C113.341,52.719 112.837,53.052 112.45,53.556 Z M117.697,55.581 C117.823,56.355 118.363,56.787 119.065,56.787 C119.596,56.787 119.974,56.589 120.352,56.22 L120.991,56.787 C120.541,57.327 119.92,57.678 119.047,57.678 C117.67,57.678 116.608,56.679 116.608,55.203 C116.608,53.835 117.571,52.719 118.93,52.719 C120.442,52.719 121.207,53.907 121.207,55.284 C121.207,55.383 121.198,55.473 121.189,55.581 L117.697,55.581 Z M117.688,54.861 L120.127,54.861 C120.055,54.159 119.641,53.61 118.921,53.61 C118.255,53.61 117.787,54.123 117.688,54.861 Z M123.16,57.57 L123.16,56.337 L121.963,56.337 L121.963,57.57 L123.16,57.57 Z M124.924,55.581 C125.05,56.355 125.59,56.787 126.292,56.787 C126.823,56.787 127.201,56.589 127.579,56.22 L128.218,56.787 C127.768,57.327 127.147,57.678 126.274,57.678 C124.897,57.678 123.835,56.679 123.835,55.203 C123.835,53.835 124.798,52.719 126.157,52.719 C127.669,52.719 128.434,53.907 128.434,55.284 C128.434,55.383 128.425,55.473 128.416,55.581 L124.924,55.581 Z M124.915,54.861 L127.354,54.861 C127.282,54.159 126.868,53.61 126.148,53.61 C125.482,53.61 125.014,54.123 124.915,54.861 Z M130.666,53.754 L131.944,53.754 L131.944,52.818 L130.666,52.818 L130.666,51.513 L129.577,51.513 L129.577,52.818 L128.974,52.818 L128.974,53.754 L129.577,53.754 L129.577,56.256 C129.577,57.3 130.144,57.651 130.945,57.651 C131.35,57.651 131.656,57.561 131.926,57.408 L131.926,56.517 C131.71,56.625 131.494,56.679 131.251,56.679 C130.882,56.679 130.666,56.508 130.666,56.085 L130.666,53.754 Z M133.951,54.888 C133.951,54.15 134.392,53.709 135.022,53.709 C135.67,53.709 136.039,54.132 136.039,54.87 L136.039,57.57 L137.128,57.57 L137.128,54.546 C137.128,53.439 136.507,52.719 135.436,52.719 C134.698,52.719 134.257,53.106 133.951,53.556 L133.951,51 L132.862,51 L132.862,57.57 L133.951,57.57 L133.951,54.888 Z" id="YourName.eth" fill="#3F335D"></path>
            <path d="M79.618,79.059 L79.618,81.57 L78.502,81.57 L78.502,79.086 L76,75.27 L77.305,75.27 L79.069,78.06 L80.851,75.27 L82.12,75.27 L79.618,79.059 Z M86.602,79.194 C86.602,80.553 85.522,81.678 84.055,81.678 C82.606,81.678 81.535,80.571 81.535,79.212 C81.535,77.844 82.615,76.719 84.073,76.719 C85.531,76.719 86.602,77.826 86.602,79.194 Z M85.513,79.212 C85.513,78.366 84.91,77.673 84.055,77.673 C83.182,77.673 82.624,78.357 82.624,79.194 C82.624,80.04 83.227,80.733 84.073,80.733 C84.955,80.733 85.513,80.049 85.513,79.212 Z M90.652,79.5 C90.652,80.238 90.211,80.679 89.581,80.679 C88.933,80.679 88.564,80.256 88.564,79.518 L88.564,76.818 L87.475,76.818 L87.475,79.842 C87.475,80.949 88.096,81.669 89.167,81.669 C89.905,81.669 90.346,81.282 90.652,80.832 L90.652,81.57 L91.741,81.57 L91.741,76.818 L90.652,76.818 L90.652,79.5 Z M94.018,79.761 C94.018,78.501 94.684,77.88 95.638,77.88 L95.701,77.88 L95.701,76.728 C94.864,76.692 94.315,77.178 94.018,77.889 L94.018,76.818 L92.929,76.818 L92.929,81.57 L94.018,81.57 L94.018,79.761 Z M100.993,79.626 L97.618,75.27 L96.592,75.27 L96.592,81.57 L97.681,81.57 L97.681,77.088 L101.155,81.57 L102.082,81.57 L102.082,75.27 L100.993,75.27 L100.993,79.626 Z M107.383,81.57 L106.303,81.57 L106.303,80.985 C105.979,81.372 105.484,81.669 104.764,81.669 C103.864,81.669 103.072,81.156 103.072,80.202 L103.072,80.184 C103.072,79.158 103.891,78.654 104.998,78.654 C105.574,78.654 105.943,78.735 106.312,78.852 L106.312,78.735 C106.312,78.078 105.898,77.718 105.142,77.718 C104.611,77.718 104.215,77.835 103.783,78.015 L103.486,77.142 C104.008,76.908 104.521,76.746 105.295,76.746 C106.699,76.746 107.383,77.484 107.383,78.753 L107.383,81.57 Z M106.33,79.851 L106.33,79.554 C106.051,79.446 105.664,79.365 105.241,79.365 C104.557,79.365 104.152,79.644 104.152,80.13 L104.152,80.148 C104.152,80.598 104.557,80.85 105.07,80.85 C105.79,80.85 106.33,80.445 106.33,79.851 Z M112.45,77.556 C112.198,77.052 111.721,76.719 111.037,76.719 C110.308,76.719 109.894,77.115 109.588,77.538 L109.588,76.818 L108.499,76.818 L108.499,81.57 L109.588,81.57 L109.588,78.897 C109.588,78.159 110.002,77.709 110.605,77.709 C111.208,77.709 111.568,78.123 111.568,78.861 L111.568,81.57 L112.657,81.57 L112.657,78.888 C112.657,78.123 113.08,77.709 113.674,77.709 C114.286,77.709 114.637,78.114 114.637,78.87 L114.637,81.57 L115.726,81.57 L115.726,78.537 C115.726,77.376 115.096,76.719 114.061,76.719 C113.341,76.719 112.837,77.052 112.45,77.556 Z M117.697,79.581 C117.823,80.355 118.363,80.787 119.065,80.787 C119.596,80.787 119.974,80.589 120.352,80.22 L120.991,80.787 C120.541,81.327 119.92,81.678 119.047,81.678 C117.67,81.678 116.608,80.679 116.608,79.203 C116.608,77.835 117.571,76.719 118.93,76.719 C120.442,76.719 121.207,77.907 121.207,79.284 C121.207,79.383 121.198,79.473 121.189,79.581 L117.697,79.581 Z M117.688,78.861 L120.127,78.861 C120.055,78.159 119.641,77.61 118.921,77.61 C118.255,77.61 117.787,78.123 117.688,78.861 Z M123.16,81.57 L123.16,80.337 L121.963,80.337 L121.963,81.57 L123.16,81.57 Z M128.857,81.57 L127.768,81.57 L127.768,80.778 C127.417,81.273 126.922,81.669 126.148,81.669 C125.032,81.669 123.943,80.778 123.943,79.194 C123.943,77.61 125.014,76.719 126.148,76.719 C126.931,76.719 127.426,77.115 127.768,77.556 L127.768,75 L128.857,75 L128.857,81.57 Z M127.786,79.194 C127.786,78.267 127.138,77.664 126.409,77.664 C125.662,77.664 125.041,78.24 125.041,79.194 C125.041,80.13 125.671,80.724 126.409,80.724 C127.138,80.724 127.786,80.121 127.786,79.194 Z M134.023,81.57 L132.943,81.57 L132.943,80.985 C132.619,81.372 132.124,81.669 131.404,81.669 C130.504,81.669 129.712,81.156 129.712,80.202 L129.712,80.184 C129.712,79.158 130.531,78.654 131.638,78.654 C132.214,78.654 132.583,78.735 132.952,78.852 L132.952,78.735 C132.952,78.078 132.538,77.718 131.782,77.718 C131.251,77.718 130.855,77.835 130.423,78.015 L130.126,77.142 C130.648,76.908 131.161,76.746 131.935,76.746 C133.339,76.746 134.023,77.484 134.023,78.753 L134.023,81.57 Z M132.97,79.851 L132.97,79.554 C132.691,79.446 132.304,79.365 131.881,79.365 C131.197,79.365 130.792,79.644 130.792,80.13 L130.792,80.148 C130.792,80.598 131.197,80.85 131.71,80.85 C132.43,80.85 132.97,80.445 132.97,79.851 Z M140.053,79.194 C140.053,80.778 138.973,81.669 137.839,81.669 C137.056,81.669 136.561,81.273 136.228,80.832 L136.228,83.01 L135.139,83.01 L135.139,76.818 L136.228,76.818 L136.228,77.61 C136.579,77.115 137.074,76.719 137.839,76.719 C138.964,76.719 140.053,77.61 140.053,79.194 Z M138.946,79.194 C138.946,78.258 138.325,77.664 137.587,77.664 C136.849,77.664 136.201,78.267 136.201,79.194 C136.201,80.121 136.849,80.724 137.587,80.724 C138.334,80.724 138.946,80.139 138.946,79.194 Z M145.903,79.194 C145.903,80.778 144.823,81.669 143.689,81.669 C142.906,81.669 142.411,81.273 142.078,80.832 L142.078,83.01 L140.989,83.01 L140.989,76.818 L142.078,76.818 L142.078,77.61 C142.429,77.115 142.924,76.719 143.689,76.719 C144.814,76.719 145.903,77.61 145.903,79.194 Z M144.796,79.194 C144.796,78.258 144.175,77.664 143.437,77.664 C142.699,77.664 142.051,78.267 142.051,79.194 C142.051,80.121 142.699,80.724 143.437,80.724 C144.184,80.724 144.796,80.139 144.796,79.194 Z" id="YourName.dapp" fill="#3F335D"></path>
            <path d="M79.618,103.059 L79.618,105.57 L78.502,105.57 L78.502,103.086 L76,99.27 L77.305,99.27 L79.069,102.06 L80.851,99.27 L82.12,99.27 L79.618,103.059 Z M86.602,103.194 C86.602,104.553 85.522,105.678 84.055,105.678 C82.606,105.678 81.535,104.571 81.535,103.212 C81.535,101.844 82.615,100.719 84.073,100.719 C85.531,100.719 86.602,101.826 86.602,103.194 Z M85.513,103.212 C85.513,102.366 84.91,101.673 84.055,101.673 C83.182,101.673 82.624,102.357 82.624,103.194 C82.624,104.04 83.227,104.733 84.073,104.733 C84.955,104.733 85.513,104.049 85.513,103.212 Z M90.652,103.5 C90.652,104.238 90.211,104.679 89.581,104.679 C88.933,104.679 88.564,104.256 88.564,103.518 L88.564,100.818 L87.475,100.818 L87.475,103.842 C87.475,104.949 88.096,105.669 89.167,105.669 C89.905,105.669 90.346,105.282 90.652,104.832 L90.652,105.57 L91.741,105.57 L91.741,100.818 L90.652,100.818 L90.652,103.5 Z M94.018,103.761 C94.018,102.501 94.684,101.88 95.638,101.88 L95.701,101.88 L95.701,100.728 C94.864,100.692 94.315,101.178 94.018,101.889 L94.018,100.818 L92.929,100.818 L92.929,105.57 L94.018,105.57 L94.018,103.761 Z M100.993,103.626 L97.618,99.27 L96.592,99.27 L96.592,105.57 L97.681,105.57 L97.681,101.088 L101.155,105.57 L102.082,105.57 L102.082,99.27 L100.993,99.27 L100.993,103.626 Z M107.383,105.57 L106.303,105.57 L106.303,104.985 C105.979,105.372 105.484,105.669 104.764,105.669 C103.864,105.669 103.072,105.156 103.072,104.202 L103.072,104.184 C103.072,103.158 103.891,102.654 104.998,102.654 C105.574,102.654 105.943,102.735 106.312,102.852 L106.312,102.735 C106.312,102.078 105.898,101.718 105.142,101.718 C104.611,101.718 104.215,101.835 103.783,102.015 L103.486,101.142 C104.008,100.908 104.521,100.746 105.295,100.746 C106.699,100.746 107.383,101.484 107.383,102.753 L107.383,105.57 Z M106.33,103.851 L106.33,103.554 C106.051,103.446 105.664,103.365 105.241,103.365 C104.557,103.365 104.152,103.644 104.152,104.13 L104.152,104.148 C104.152,104.598 104.557,104.85 105.07,104.85 C105.79,104.85 106.33,104.445 106.33,103.851 Z M112.45,101.556 C112.198,101.052 111.721,100.719 111.037,100.719 C110.308,100.719 109.894,101.115 109.588,101.538 L109.588,100.818 L108.499,100.818 L108.499,105.57 L109.588,105.57 L109.588,102.897 C109.588,102.159 110.002,101.709 110.605,101.709 C111.208,101.709 111.568,102.123 111.568,102.861 L111.568,105.57 L112.657,105.57 L112.657,102.888 C112.657,102.123 113.08,101.709 113.674,101.709 C114.286,101.709 114.637,102.114 114.637,102.87 L114.637,105.57 L115.726,105.57 L115.726,102.537 C115.726,101.376 115.096,100.719 114.061,100.719 C113.341,100.719 112.837,101.052 112.45,101.556 Z M117.697,103.581 C117.823,104.355 118.363,104.787 119.065,104.787 C119.596,104.787 119.974,104.589 120.352,104.22 L120.991,104.787 C120.541,105.327 119.92,105.678 119.047,105.678 C117.67,105.678 116.608,104.679 116.608,103.203 C116.608,101.835 117.571,100.719 118.93,100.719 C120.442,100.719 121.207,101.907 121.207,103.284 C121.207,103.383 121.198,103.473 121.189,103.581 L117.697,103.581 Z M117.688,102.861 L120.127,102.861 C120.055,102.159 119.641,101.61 118.921,101.61 C118.255,101.61 117.787,102.123 117.688,102.861 Z M123.16,105.57 L123.16,104.337 L121.963,104.337 L121.963,105.57 L123.16,105.57 Z M128.857,105.57 L127.768,105.57 L127.768,104.778 C127.417,105.273 126.922,105.669 126.148,105.669 C125.032,105.669 123.943,104.778 123.943,103.194 C123.943,101.61 125.014,100.719 126.148,100.719 C126.931,100.719 127.426,101.115 127.768,101.556 L127.768,99 L128.857,99 L128.857,105.57 Z M127.786,103.194 C127.786,102.267 127.138,101.664 126.409,101.664 C125.662,101.664 125.041,102.24 125.041,103.194 C125.041,104.13 125.671,104.724 126.409,104.724 C127.138,104.724 127.786,104.121 127.786,103.194 Z M134.023,105.57 L132.943,105.57 L132.943,104.985 C132.619,105.372 132.124,105.669 131.404,105.669 C130.504,105.669 129.712,105.156 129.712,104.202 L129.712,104.184 C129.712,103.158 130.531,102.654 131.638,102.654 C132.214,102.654 132.583,102.735 132.952,102.852 L132.952,102.735 C132.952,102.078 132.538,101.718 131.782,101.718 C131.251,101.718 130.855,101.835 130.423,102.015 L130.126,101.142 C130.648,100.908 131.161,100.746 131.935,100.746 C133.339,100.746 134.023,101.484 134.023,102.753 L134.023,105.57 Z M132.97,103.851 L132.97,103.554 C132.691,103.446 132.304,103.365 131.881,103.365 C131.197,103.365 130.792,103.644 130.792,104.13 L130.792,104.148 C130.792,104.598 131.197,104.85 131.71,104.85 C132.43,104.85 132.97,104.445 132.97,103.851 Z M139.945,103.194 C139.945,104.553 138.865,105.678 137.398,105.678 C135.949,105.678 134.878,104.571 134.878,103.212 C134.878,101.844 135.958,100.719 137.416,100.719 C138.874,100.719 139.945,101.826 139.945,103.194 Z M138.856,103.212 C138.856,102.366 138.253,101.673 137.398,101.673 C136.525,101.673 135.967,102.357 135.967,103.194 C135.967,104.04 136.57,104.733 137.416,104.733 C138.298,104.733 138.856,104.049 138.856,103.212 Z" id="YourName.dao" fill="#3F335D"></path>
        </g>
    </g>
</svg>