<?xml version="1.0" encoding="UTF-8" standalone="no"?>
<svg width="220px" height="140px" viewBox="0 0 220 140" version="1.1" xmlns="http://www.w3.org/2000/svg" xmlns:xlink="http://www.w3.org/1999/xlink">
    <!-- Generator: Sketch 42 (36781) - http://www.bohemiancoding.com/sketch -->
    <title>work3</title>
    <desc>Created with Sketch.</desc>
    <defs></defs>
    <g id="logo" stroke="none" stroke-width="1" fill="none" fill-rule="evenodd">
        <g id="work3">
            <path d="M133.930525,81.6507905 C134.12828,81.8463839 134.38731,81.9442796 134.646343,81.9442796 C134.905373,81.9442796 135.164402,81.8463839 135.362158,81.6507905 L146.341664,70.7858169 C146.737078,70.3944322 146.737078,69.760505 146.341664,69.3691202 L143.11207,66.1731107 L145.225391,64.0814288 C145.620901,63.6900441 145.620901,63.0561169 145.225391,62.6647322 C144.82988,62.2733474 144.189272,62.2733474 143.793762,62.6647322 L141.680433,64.756414 L124.371852,47.6284826 L126.485683,45.5367013 C126.881094,45.1453166 126.881094,44.5112893 126.485683,44.1200041 C126.090173,43.7286196 125.449461,43.7286196 125.054053,44.1200041 L122.940221,46.2117855 L119.710117,43.0153762 C119.314606,42.6239912 118.673997,42.6239912 118.278486,43.0153762 L107.298978,53.8803503 C106.903568,54.2716351 106.903568,54.9056633 107.298978,55.297048 L110.52878,58.4931567 L108.285736,60.7129032 C107.890225,61.1041869 107.890225,61.7382151 108.285736,62.1295998 C108.483492,62.3251931 108.742521,62.4230889 109.001552,62.4230889 C109.260581,62.4230889 109.519612,62.3251931 109.717367,62.1295998 L111.960411,59.9098552 L118.420618,66.3025737 L94.4775913,89.9944405 C94.0820808,90.3857261 94.0820808,91.0202535 94.4775913,91.4115392 C94.6753466,91.6072316 97.0403344,93.9485475 97.435744,94.3399322 C97.6334993,94.5355217 97.8925293,94.6334213 98.1515596,94.6334213 C98.4105898,94.6334213 98.6696199,94.5355217 98.8673752,94.3399322 L122.810706,70.6468651 L129.269802,77.0387853 L127.027467,79.2581298 C126.631956,79.6495145 126.631956,80.2834436 127.027467,80.6748283 C127.225222,80.8705207 127.484252,80.9683174 127.743281,80.9683174 C128.002311,80.9683174 128.26134,80.8705207 128.459096,80.6748283 L130.701431,78.45548 L133.930525,81.6507905 Z" id="Shape" fill="#EBD6FE" fill-rule="nonzero" transform="translate(120.409591, 68.677629) rotate(-89.000000) translate(-120.409591, -68.677629) "></path>
            <g id="justice" transform="translate(88.000000, 42.000000)" fill-rule="nonzero" fill="#3F335D">
                <g id="Layer_1">
                    <g id="Justice">
                        <path d="M39.9473597,39.8717206 C40.145115,40.0673139 40.4041445,40.1652096 40.6631779,40.1652096 C40.9222075,40.1652096 41.1812371,40.0673139 41.3789923,39.8717206 L52.3584985,29.0067469 C52.7539127,28.6153622 52.7539127,27.981435 52.3584985,27.5900503 L49.1289042,24.3940407 L51.2422253,22.3023588 C51.6377358,21.9109741 51.6377358,21.2770469 51.2422253,20.8856622 C50.8467148,20.4942775 50.206107,20.4942775 49.8105965,20.8856622 L47.6972678,22.977344 L30.3886866,5.84941264 L32.502518,3.7576313 C32.8979283,3.36624659 32.8979283,2.73221936 32.502518,2.34093414 C32.1070075,1.94954962 31.4662957,1.94954962 31.0708873,2.34093414 L28.9570559,4.43271548 L25.7269514,1.23630623 C25.3314409,0.84492121 24.6908312,0.84492121 24.2953207,1.23630623 L13.3158125,12.1012804 C12.9204031,12.4925651 12.9204031,13.1265933 13.3158125,13.517978 L16.5456147,16.7140867 L14.3025709,18.9338332 C13.9070594,19.3251169 13.9070594,19.9591451 14.3025709,20.3505298 C14.5003262,20.5461232 14.7593558,20.6440189 15.0183863,20.6440189 C15.2774159,20.6440189 15.5364464,20.5461232 15.7342017,20.3505298 L17.9772455,18.1307853 L24.4374526,24.5235038 L0.494425979,48.2153705 C0.0989153978,48.6066561 0.0989153978,49.2411835 0.494425979,49.6324692 C0.692181269,49.8281617 0.951211425,49.9260573 1.21024158,49.9260573 C1.46927174,49.9260573 1.72830179,49.8281616 1.92605718,49.6324692 L25.8690857,25.9402005 L27.3959088,27.4510967 L3.45257862,51.1441636 C3.05716899,51.5354493 3.05716899,52.1694775 3.45257862,52.5608622 C3.65033391,52.7564517 3.90936397,52.8543513 4.16839423,52.8543513 C4.42742448,52.8543513 4.68645454,52.7564517 4.88420983,52.5608622 L28.8275405,28.8677951 L35.2866367,35.2597153 L33.0443014,37.4790598 C32.6487909,37.8704445 32.6487909,38.5043736 33.0443014,38.8957584 C33.2420567,39.0914508 33.5010863,39.1892474 33.7601158,39.1892474 C34.0191454,39.1892474 34.278175,39.0914508 34.4759302,38.8957584 L36.7182654,36.67641 L39.9473597,39.8717206 Z M50.2110553,28.2983995 L40.663178,37.7466745 L38.1498988,35.2596125 L47.6972678,25.8108382 L50.2110553,28.2983995 Z M15.4632596,12.8096286 L25.011135,3.36135178 L27.5254232,5.84941264 L17.9772455,15.2973904 L15.4632596,12.8096286 Z M26.5861108,23.8164539 L26.5851018,23.8149544 L26.5836886,23.8139559 L19.4089783,16.7140866 L28.9570558,7.26610981 L46.2656389,24.3941387 L36.718266,33.8429167 L26.5861108,23.8164539 Z" id="Shape" transform="translate(26.426426, 26.898559) rotate(-89.000000) translate(-26.426426, -26.898559) "></path>
                    </g>
                </g>
            </g>
            <path d="M174.321429,47.2161781 C170.401786,44.170538 166.1875,42.0470501 164.794643,41.3787013 L164.794643,35.9134694 C165.660714,35.20282 166.160714,34.1791466 166.160714,33.0793321 L166.160714,26.6411874 C166.160714,22.9779592 163.017857,20 159.151786,20 L157.6875,20 C153.821429,20 150.678571,22.9779592 150.678571,26.6411874 L150.678571,33.0877922 C150.678571,34.1876067 151.178571,35.2112801 152.044643,35.9219295 L152.044643,41.3871614 C150.651786,42.0555102 146.428571,44.1789981 142.517857,47.2246382 C141.553571,47.9775881 141,49.0943228 141,50.2871985 L141,54.7033766 C141,55.1686827 141.392857,55.5409276 141.883929,55.5409276 C142.375,55.5409276 142.767857,55.1686827 142.767857,54.7033766 L142.767857,50.2871985 C142.767857,49.6019295 143.089286,48.9505009 143.642857,48.5190353 C147.794643,45.2872727 152.294643,43.1384045 153.151786,42.7407792 C153.553571,42.5546568 153.821429,42.1570315 153.821429,41.734026 L153.821429,35.5158442 C153.821429,35.2366605 153.669643,34.974397 153.428571,34.822115 C152.821429,34.4329499 152.455357,33.7899814 152.455357,33.1047124 L152.455357,26.6411874 C152.455357,23.9001113 154.803571,21.675102 157.696429,21.675102 L159.160714,21.675102 C162.053571,21.675102 164.401786,23.9001113 164.401786,26.6411874 L164.401786,33.0877922 C164.401786,33.7815213 164.035714,34.4244898 163.428571,34.8051948 C163.178571,34.9574768 163.035714,35.2197403 163.035714,35.4989239 L163.035714,41.7171058 C163.035714,42.1401113 163.294643,42.5377365 163.705357,42.723859 C164.5625,43.1214842 169.0625,45.2788126 173.214286,48.502115 C173.767857,48.9335807 174.089286,49.5765492 174.089286,50.2702783 L174.089286,54.6864564 C174.089286,55.1517625 174.482143,55.5240074 174.973214,55.5240074 C175.464286,55.5240074 175.857143,55.1517625 175.857143,54.6864564 L175.857143,50.2702783 C175.848214,49.0858627 175.285714,47.969128 174.321429,47.2161781 Z" id="Shape" fill="#3F335D" fill-rule="nonzero"></path>
            <path d="M84,98 L106,98 L104.515386,94 L85.4846141,94 L84,98 Z M83.4096814,92.9333586 C83.607072,92.4178789 84.2158354,92 84.7907383,92 L105.208429,92 C105.773776,92 106.392468,92.418851 106.589486,92.9333586 L108.93808,99.0666414 C109.13547,99.5821211 108.846378,100 108.277889,100 L81.7212784,100 C81.1592748,100 80.8640698,99.581149 81.0610881,99.0666414 L83.4096814,92.9333586 Z" id="Rectangle-10" fill="#3F335D" fill-rule="nonzero"></path>
            <rect id="Rectangle" fill="#3F335D" x="86" y="88" width="18" height="2" rx="1"></rect>
            <path d="M79.3214286,108.216178 C75.4017857,105.170538 71.1875,103.04705 69.7946429,102.378701 L69.7946429,96.9134694 C70.6607143,96.20282 71.1607143,95.1791466 71.1607143,94.0793321 L71.1607143,87.6411874 C71.1607143,83.9779592 68.0178571,81 64.1517857,81 L62.6875,81 C58.8214286,81 55.6785714,83.9779592 55.6785714,87.6411874 L55.6785714,94.0877922 C55.6785714,95.1876067 56.1785714,96.2112801 57.0446429,96.9219295 L57.0446429,102.387161 C55.6517857,103.05551 51.4285714,105.178998 47.5178571,108.224638 C46.5535714,108.977588 46,110.094323 46,111.287199 L46,115.703377 C46,116.168683 46.3928571,116.540928 46.8839286,116.540928 C47.375,116.540928 47.7678571,116.168683 47.7678571,115.703377 L47.7678571,111.287199 C47.7678571,110.601929 48.0892857,109.950501 48.6428571,109.519035 C52.7946429,106.287273 57.2946429,104.138404 58.1517857,103.740779 C58.5535714,103.554657 58.8214286,103.157032 58.8214286,102.734026 L58.8214286,96.5158442 C58.8214286,96.2366605 58.6696429,95.974397 58.4285714,95.822115 C57.8214286,95.4329499 57.4553571,94.7899814 57.4553571,94.1047124 L57.4553571,87.6411874 C57.4553571,84.9001113 59.8035714,82.675102 62.6964286,82.675102 L64.1607143,82.675102 C67.0535714,82.675102 69.4017857,84.9001113 69.4017857,87.6411874 L69.4017857,94.0877922 C69.4017857,94.7815213 69.0357143,95.4244898 68.4285714,95.8051948 C68.1785714,95.9574768 68.0357143,96.2197403 68.0357143,96.4989239 L68.0357143,102.717106 C68.0357143,103.140111 68.2946429,103.537737 68.7053571,103.723859 C69.5625,104.121484 74.0625,106.278813 78.2142857,109.502115 C78.7678571,109.933581 79.0892857,110.576549 79.0892857,111.270278 L79.0892857,115.686456 C79.0892857,116.151763 79.4821429,116.524007 79.9732143,116.524007 C80.4642857,116.524007 80.8571429,116.151763 80.8571429,115.686456 L80.8571429,111.270278 C80.8482143,110.085863 80.2857143,108.969128 79.3214286,108.216178 Z" id="Shape" fill="#3F335D" fill-rule="nonzero"></path>
            <g id="Group-2" transform="translate(146.008330, 103.387495) rotate(-60.000000) translate(-146.008330, -103.387495) translate(126.508330, 90.387495)" fill-rule="nonzero" fill="#7100D8">
                <path d="M35.9109254,17.5669873 L33.1045892,17.5669873 C32.5523045,17.5669873 32.1045892,17.119272 32.1045892,16.5669873 C32.1045892,16.0147025 32.5523045,15.5669873 33.1045892,15.5669873 L37.9283722,15.5669873 C38.009482,15.5669873 38.0883363,15.5766438 38.1638483,15.59487 C38.6102618,15.6951229 38.9437822,16.0939011 38.9437822,16.5705771 L38.9437822,21.3943601 C38.9437822,21.9466448 38.496067,22.3943601 37.9437822,22.3943601 C37.3914975,22.3943601 36.9437822,21.9466448 36.9437822,21.3943601 L36.9437822,19.3483559 C30.452506,25.4635721 20.8364706,26.9627782 12.770817,23.0600875 C4.52123727,19.0684013 -0.303612867,10.297972 0.741234857,1.19317005 C0.804200628,0.644486395 1.30004046,0.250734249 1.84872412,0.31370002 C2.39740778,0.376665791 2.79115992,0.872505622 2.72819415,1.42118928 C1.78026489,9.68144378 6.15756935,17.6383415 13.6419308,21.2597651 C21.1112202,24.8738958 30.0460414,23.381768 35.9109254,17.5669873 Z" id="Combined-Shape"></path>
            </g>
            <g id="Group-2" transform="translate(84.008330, 38.387495) scale(-1, -1) rotate(-60.000000) translate(-84.008330, -38.387495) translate(64.508330, 25.387495)" fill-rule="nonzero" fill="#7100D8">
                <path d="M35.7109254,17.952628 L32.9045893,17.952628 C32.3523045,17.952628 31.9045893,17.5049127 31.9045893,16.952628 C31.9045893,16.4003432 32.3523045,15.952628 32.9045893,15.952628 L37.7283722,15.952628 C37.809482,15.952628 37.8883363,15.9622845 37.9638483,15.9805107 C38.4102618,16.0807635 38.7437822,16.4795417 38.7437822,16.9562178 L38.7437822,21.7800007 C38.7437822,22.3322855 38.296067,22.7800007 37.7437822,22.7800007 C37.1914975,22.7800007 36.7437822,22.3322855 36.7437822,21.7800007 L36.7437822,19.7339966 C30.252506,25.8492128 20.6364706,27.3484188 12.570817,23.4457282 C4.32123728,19.4540419 -0.503612856,10.6836127 0.541234869,1.57881072 C0.60420064,1.03012706 1.10004047,0.636374916 1.64872413,0.699340687 C2.19740779,0.762306458 2.59115993,1.25814629 2.52819416,1.80682995 C1.58026491,10.0670845 5.95756936,18.0239822 13.4419308,21.6454057 C20.9112202,25.2595365 29.8460414,23.7674086 35.7109254,17.952628 Z" id="Combined-Shape"></path>
            </g>
            <g id="Group-2" transform="translate(107.010408, 62.717514) rotate(-45.000000) translate(-107.010408, -62.717514) translate(102.010408, 57.217514)" fill="#3F335D">
                <path d="M1,3.21634124 L4.87369106,1.00197682 L4.87764246,2.65959046 L2.46103088,4.04077313 L2.46498228,5.71685871 L3.61055957,5.06191498 L4.55659105,5.59403651 L3.51342093,6.18999965 L2.46761655,6.78823128 L2.46761655,6.78920349 L1.01020779,7.62206117 L1,3.21634124 Z M5.52237955,1 L9.08127559,3.00825645 L7.62386683,3.8414382 L5.52633095,2.65761364 L5.52237955,1 Z M1.33547403,8.17372407 L2.79288279,7.34086638 L4.89074795,8.52469094 L4.89469935,10.1819805 L1.33547403,8.17372407 Z M7.94952821,4.39290665 L9.40660768,3.5597249 L9.41681547,7.9657689 L5.54345369,10.1801333 L5.53950229,8.52251968 L7.9557846,7.14133701 L7.95183319,5.46492736 L6.80658519,6.11987109 L5.86582224,5.58483294 L7.94952821,4.39387886 L7.94952821,4.39290665 Z" id="Combined-Shape" transform="translate(5.208408, 5.590990) rotate(1.000000) translate(-5.208408, -5.590990) "></path>
            </g>
            <path d="M152.35,60.07 C153.26,60.07 153.99,59.38 153.99,58.35 L153.99,58.33 C153.99,57.54 153.75,57.07 152.82,55.97 C152.18,55.21 152.05,55 152.05,54.61 L152.05,54.59 C152.05,54.15 152.37,53.88 152.77,53.88 C153.09,53.88 153.36,53.99 153.74,54.22 L153.74,53.18 C153.43,53.02 153.13,52.93 152.66,52.93 C151.76,52.93 151.06,53.61 151.06,54.64 L151.06,54.66 C151.06,55.45 151.37,55.89 152.23,56.92 C152.87,57.69 153,57.98 153,58.38 L153,58.4 C153,58.88 152.68,59.12 152.26,59.12 C151.92,59.12 151.56,58.98 151.12,58.71 L151.12,59.75 C151.49,59.94 151.89,60.07 152.35,60.07 Z M156.16,60.09 C155.2,60.09 154.38,59.2 154.38,57.46 L154.38,57.25 C154.38,55.5 155.1,54.59 155.95,54.59 C156.83,54.59 157.42,55.52 157.42,57.25 L157.42,57.77 L155.33,57.77 C155.38,58.79 155.8,59.2 156.29,59.2 C156.64,59.2 156.87,59.07 157.22,58.84 L157.3,59.72 C156.9,59.97 156.6,60.09 156.16,60.09 Z M155.32,57.01 L156.52,57.01 C156.52,56.02 156.31,55.44 155.95,55.44 C155.6,55.44 155.35,55.93 155.32,57.01 Z M158.05,60 L159,60 L159,52.94 L158.05,52.94 L158.05,60 Z M159.83,60 L160.78,60 L160.78,52.94 L159.83,52.94 L159.83,60 Z M163.21,60.09 C162.25,60.09 161.43,59.2 161.43,57.46 L161.43,57.25 C161.43,55.5 162.15,54.59 163,54.59 C163.88,54.59 164.47,55.52 164.47,57.25 L164.47,57.77 L162.38,57.77 C162.43,58.79 162.85,59.2 163.34,59.2 C163.69,59.2 163.92,59.07 164.27,58.84 L164.35,59.72 C163.95,59.97 163.65,60.09 163.21,60.09 Z M162.37,57.01 L163.57,57.01 C163.57,56.02 163.36,55.44 163,55.44 C162.65,55.44 162.4,55.93 162.37,57.01 Z M165.07,60 L166.02,60 L166.02,56.94 C166.02,56.13 166.38,55.74 166.97,55.74 L166.99,55.74 L166.99,54.61 C166.49,54.58 166.19,54.91 166.02,55.37 L166.02,54.67 L165.07,54.67 L165.07,60 Z" id="Seller" fill="#3F335D"></path>
            <path d="M54.84,119 L54.84,112 L55.85,112 C57.01,112 58.01,112.55 58.01,113.77 L58.01,113.81 C58.01,114.75 57.47,115.2 56.92,115.43 C57.58,115.66 58.1,116.12 58.1,117.03 L58.1,117.1 C58.1,118.31 57.17,119 55.83,119 L54.84,119 Z M55.83,115.04 L55.93,115.04 C56.62,115.04 57.04,114.65 57.04,113.95 L57.04,113.93 C57.04,113.25 56.61,112.91 55.97,112.91 L55.83,112.91 L55.83,115.04 Z M55.83,118.09 L55.93,118.09 C56.64,118.09 57.11,117.71 57.11,117.03 L57.11,116.99 C57.11,116.29 56.66,115.9 55.95,115.9 L55.83,115.9 L55.83,118.09 Z M59.74,119.09 C60.24,119.09 60.53,118.74 60.73,118.32 L60.73,119 L61.68,119 L61.68,113.67 L60.73,113.67 L60.73,117.39 C60.73,117.92 60.48,118.24 60.14,118.24 C59.81,118.24 59.61,117.95 59.61,117.41 L59.61,113.67 L58.66,113.67 L58.66,117.62 C58.66,118.51 59.05,119.09 59.74,119.09 Z M63.05,120.3 L63.97,120.3 L65.48,113.67 L64.55,113.67 L63.84,117.23 L63.17,113.67 L62.23,113.67 L63.38,118.85 L63.05,120.3 Z M67.66,119.09 C66.7,119.09 65.88,118.2 65.88,116.46 L65.88,116.25 C65.88,114.5 66.6,113.59 67.45,113.59 C68.33,113.59 68.92,114.52 68.92,116.25 L68.92,116.77 L66.83,116.77 C66.88,117.79 67.3,118.2 67.79,118.2 C68.14,118.2 68.37,118.07 68.72,117.84 L68.8,118.72 C68.4,118.97 68.1,119.09 67.66,119.09 Z M66.82,116.01 L68.02,116.01 C68.02,115.02 67.81,114.44 67.45,114.44 C67.1,114.44 66.85,114.93 66.82,116.01 Z M69.52,119 L70.47,119 L70.47,115.94 C70.47,115.13 70.83,114.74 71.42,114.74 L71.44,114.74 L71.44,113.61 C70.94,113.58 70.64,113.91 70.47,114.37 L70.47,113.67 L69.52,113.67 L69.52,119 Z" id="Buyer" fill="#3F335D"></path>
        </g>
    </g>
</svg>