<?xml version="1.0" encoding="UTF-8" standalone="no"?>
<svg width="220px" height="140px" viewBox="0 0 220 140" version="1.1" xmlns="http://www.w3.org/2000/svg" xmlns:xlink="http://www.w3.org/1999/xlink">
    <!-- Generator: Sketch 42 (36781) - http://www.bohemiancoding.com/sketch -->
    <title>work1</title>
    <desc>Created with Sketch.</desc>
    <defs></defs>
    <g id="logo" stroke="none" stroke-width="1" fill="none" fill-rule="evenodd">
        <g id="work1">
            <path d="M55,25.00672 L55,111.99328 C55,113.099341 55.8943015,114 56.9974782,114 L164.002522,114 C165.106512,114 166,113.101561 166,111.99328 L166,25.00672 C166,23.900659 165.105699,23 164.002522,23 L56.9974782,23 C55.8934882,23 55,23.8984391 55,25.00672 Z M53,25.00672 C53,22.795774 54.7870011,21 56.9974782,21 L164.002522,21 C166.211921,21 168,22.7977243 168,25.00672 L168,111.99328 C168,114.204226 166.212999,116 164.002522,116 L56.9974782,116 C54.7880787,116 53,114.202276 53,111.99328 L53,25.00672 Z" id="Rectangle-5" fill="#7100D8" fill-rule="nonzero"></path>
            <path d="M55,38 L166,38 L166,112.006249 C166,113.107367 165.106512,114 164.002522,114 L56.9974782,114 C55.8943015,114 55,113.106918 55,112.006249 L55,38 Z" id="Rectangle-7" fill="#FFFFFF"></path>
            <path d="M55,25.0027601 C55,23.8966663 55.8934882,23 56.9974782,23 L164.002522,23 C165.105699,23 166,23.8935426 166,25.0027601 L166,36 L55,36 L55,25.0027601 Z" id="Rectangle-2" fill="#EBD6FE"></path>
            <path d="M62,32 C60.8954305,32 60,31.1045695 60,30 C60,28.8954305 60.8954305,28 62,28 C63.1045695,28 64,28.8954305 64,30 C64,31.1045695 63.1045695,32 62,32 Z M68,32 C66.8954305,32 66,31.1045695 66,30 C66,28.8954305 66.8954305,28 68,28 C69.1045695,28 70,28.8954305 70,30 C70,31.1045695 69.1045695,32 68,32 Z M74,32 C72.8954305,32 72,31.1045695 72,30 C72,28.8954305 72.8954305,28 74,28 C75.1045695,28 76,28.8954305 76,30 C76,31.1045695 75.1045695,32 74,32 Z" id="Combined-Shape" fill="#7100D8"></path>
            <path d="M78.5,50.21 L81.28,46 L79.87,46 L77.89,49.1 L75.93,46 L74.48,46 L77.26,50.24 L77.26,53 L78.5,53 L78.5,50.21 Z M87.56,50.36 C87.56,51.87 86.36,53.12 84.73,53.12 C83.12,53.12 81.93,51.89 81.93,50.38 C81.93,48.86 83.13,47.61 84.75,47.61 C86.37,47.61 87.56,48.84 87.56,50.36 Z M86.35,50.38 C86.35,49.44 85.68,48.67 84.73,48.67 C83.76,48.67 83.14,49.43 83.14,50.36 C83.14,51.3 83.81,52.07 84.75,52.07 C85.73,52.07 86.35,51.31 86.35,50.38 Z M92.26,50.7 C92.26,51.52 91.77,52.01 91.07,52.01 C90.35,52.01 89.94,51.54 89.94,50.72 L89.94,47.72 L88.73,47.72 L88.73,51.08 C88.73,52.31 89.42,53.11 90.61,53.11 C91.43,53.11 91.92,52.68 92.26,52.18 L92.26,53 L93.47,53 L93.47,47.72 L92.26,47.72 L92.26,50.7 Z M96.2,50.99 C96.2,49.59 96.94,48.9 98,48.9 L98.07,48.9 L98.07,47.62 C97.14,47.58 96.53,48.12 96.2,48.91 L96.2,47.72 L94.99,47.72 L94.99,53 L96.2,53 L96.2,50.99 Z M104.15,50.84 L100.4,46 L99.26,46 L99.26,53 L100.47,53 L100.47,48.02 L104.33,53 L105.36,53 L105.36,46 L104.15,46 L104.15,50.84 Z M111.45,53 L110.25,53 L110.25,52.35 C109.89,52.78 109.34,53.11 108.54,53.11 C107.54,53.11 106.66,52.54 106.66,51.48 L106.66,51.46 C106.66,50.32 107.57,49.76 108.8,49.76 C109.44,49.76 109.85,49.85 110.26,49.98 L110.26,49.85 C110.26,49.12 109.8,48.72 108.96,48.72 C108.37,48.72 107.93,48.85 107.45,49.05 L107.12,48.08 C107.7,47.82 108.27,47.64 109.13,47.64 C110.69,47.64 111.45,48.46 111.45,49.87 L111.45,53 Z M110.28,51.09 L110.28,50.76 C109.97,50.64 109.54,50.55 109.07,50.55 C108.31,50.55 107.86,50.86 107.86,51.4 L107.86,51.42 C107.86,51.92 108.31,52.2 108.88,52.2 C109.68,52.2 110.28,51.75 110.28,51.09 Z M117.28,48.54 C117,47.98 116.47,47.61 115.71,47.61 C114.9,47.61 114.44,48.05 114.1,48.52 L114.1,47.72 L112.89,47.72 L112.89,53 L114.1,53 L114.1,50.03 C114.1,49.21 114.56,48.71 115.23,48.71 C115.9,48.71 116.3,49.17 116.3,49.99 L116.3,53 L117.51,53 L117.51,50.02 C117.51,49.17 117.98,48.71 118.64,48.71 C119.32,48.71 119.71,49.16 119.71,50 L119.71,53 L120.92,53 L120.92,49.63 C120.92,48.34 120.22,47.61 119.07,47.61 C118.27,47.61 117.71,47.98 117.28,48.54 Z M123.31,50.79 C123.45,51.65 124.05,52.13 124.83,52.13 C125.42,52.13 125.84,51.91 126.26,51.5 L126.97,52.13 C126.47,52.73 125.78,53.12 124.81,53.12 C123.28,53.12 122.1,52.01 122.1,50.37 C122.1,48.85 123.17,47.61 124.68,47.61 C126.36,47.61 127.21,48.93 127.21,50.46 C127.21,50.57 127.2,50.67 127.19,50.79 L123.31,50.79 Z M123.3,49.99 L126.01,49.99 C125.93,49.21 125.47,48.6 124.67,48.6 C123.93,48.6 123.41,49.17 123.3,49.99 Z M129.68,53 L129.68,51.63 L128.35,51.63 L128.35,53 L129.68,53 Z M132.04,50.79 C132.18,51.65 132.78,52.13 133.56,52.13 C134.15,52.13 134.57,51.91 134.99,51.5 L135.7,52.13 C135.2,52.73 134.51,53.12 133.54,53.12 C132.01,53.12 130.83,52.01 130.83,50.37 C130.83,48.85 131.9,47.61 133.41,47.61 C135.09,47.61 135.94,48.93 135.94,50.46 C135.94,50.57 135.93,50.67 135.92,50.79 L132.04,50.79 Z M132.03,49.99 L134.74,49.99 C134.66,49.21 134.2,48.6 133.4,48.6 C132.66,48.6 132.14,49.17 132.03,49.99 Z M138.62,48.76 L140.04,48.76 L140.04,47.72 L138.62,47.72 L138.62,46.27 L137.41,46.27 L137.41,47.72 L136.74,47.72 L136.74,48.76 L137.41,48.76 L137.41,51.54 C137.41,52.7 138.04,53.09 138.93,53.09 C139.38,53.09 139.72,52.99 140.02,52.82 L140.02,51.83 C139.78,51.95 139.54,52.01 139.27,52.01 C138.86,52.01 138.62,51.82 138.62,51.35 L138.62,48.76 Z M142.47,50.02 C142.47,49.2 142.96,48.71 143.66,48.71 C144.38,48.71 144.79,49.18 144.79,50 L144.79,53 L146,53 L146,49.64 C146,48.41 145.31,47.61 144.12,47.61 C143.3,47.61 142.81,48.04 142.47,48.54 L142.47,45.7 L141.26,45.7 L141.26,53 L142.47,53 L142.47,50.02 Z" id="YourName.eth" fill="#3F335D"></path>
            <rect id="Rectangle" fill="#7100D8" x="55" y="36" width="111" height="2"></rect>
            <g id="logo" transform="translate(61.000000, 95.000000)" fill="#7100D8">
                <path d="M0,3.42319922 L5.98302101,0.00305325485 L5.98912406,2.56328252 L2.25660185,4.69655665 L2.2627049,7.28531633 L4.03208012,6.27373797 L5.49325144,7.09561411 L3.88204687,8.01609536 L2.2667736,8.94008035 L2.2667736,8.94158196 L0.0157662063,10.2279533 L0,3.42319922 Z M6.98493799,0 L12.4817495,3.10180661 L10.2307421,4.38867844 L6.99104104,2.56022927 L6.98493799,0 Z M0.518148742,11.0800116 L2.76915614,9.79364027 L6.00936583,11.6220894 L6.01546888,14.1818182 L0.518148742,11.0800116 Z M10.733735,5.24043644 L12.9842338,3.9535646 L13,10.7588192 L7.01748758,14.1789651 L7.01138453,11.6187359 L10.7433981,9.48546175 L10.7372951,6.89620153 L8.96842847,7.9077799 L7.51539455,7.08139895 L10.733735,5.24193804 L10.733735,5.24043644 Z" id="Combined-Shape"></path>
            </g>
            <circle id="Oval" fill="#EBD6FE" cx="116" cy="87" r="24"></circle>
            <path d="M122.760204,92.1681385 C119.73648,89.7993074 116.485459,88.1477056 115.410969,87.6278788 L115.410969,83.3771429 C116.079082,82.8244156 116.464796,82.0282251 116.464796,81.1728139 L116.464796,76.165368 C116.464796,73.3161905 114.040306,71 111.057908,71 L109.928316,71 C106.945918,71 104.521429,73.3161905 104.521429,76.165368 L104.521429,81.1793939 C104.521429,82.0348052 104.907143,82.8309957 105.575255,83.3837229 L105.575255,87.6344589 C104.500765,88.1542857 101.242857,89.8058874 98.2260204,92.1747186 C97.4821429,92.7603463 97.055102,93.6289177 97.055102,94.55671 L97.055102,97.9915152 C97.055102,98.3534199 97.3581633,98.6429437 97.7369898,98.6429437 C98.1158163,98.6429437 98.4188776,98.3534199 98.4188776,97.9915152 L98.4188776,94.55671 C98.4188776,94.0237229 98.6668367,93.5170563 99.0938776,93.1814719 C102.296684,90.6678788 105.768112,88.9965368 106.429337,88.6872727 C106.739286,88.5425108 106.945918,88.2332468 106.945918,87.9042424 L106.945918,83.0678788 C106.945918,82.8507359 106.828827,82.6467532 106.642857,82.5283117 C106.17449,82.2256277 105.892092,81.7255411 105.892092,81.1925541 L105.892092,76.165368 C105.892092,74.0334199 107.703571,72.3028571 109.935204,72.3028571 L111.064796,72.3028571 C113.296429,72.3028571 115.107908,74.0334199 115.107908,76.165368 L115.107908,81.1793939 C115.107908,81.718961 114.82551,82.2190476 114.357143,82.5151515 C114.164286,82.6335931 114.054082,82.8375758 114.054082,83.0547186 L114.054082,87.8910823 C114.054082,88.2200866 114.253827,88.5293506 114.570663,88.6741126 C115.231888,88.9833766 118.703316,90.6612987 121.906122,93.1683117 C122.333163,93.5038961 122.581122,94.0039827 122.581122,94.5435498 L122.581122,97.978355 C122.581122,98.3402597 122.884184,98.6297835 123.26301,98.6297835 C123.641837,98.6297835 123.944898,98.3402597 123.944898,97.978355 L123.944898,94.5435498 C123.93801,93.6223377 123.504082,92.7537662 122.760204,92.1681385 Z" id="Shape" fill="#3F335D" fill-rule="nonzero"></path>
            <path d="M120.987067,106.441901 L120.987067,130.494102 C120.987067,131.042501 120.543202,131.487067 119.987067,131.487067 C119.434782,131.487067 118.987067,131.040958 118.987067,130.494102 L118.987067,106.482067 C105.686901,106.215815 94.987067,95.3509809 94.987067,81.987067 C94.987067,68.4560907 105.956091,57.487067 119.487067,57.487067 C133.018043,57.487067 143.987067,68.4560907 143.987067,81.987067 C143.987067,95.0143457 133.819499,105.666861 120.987076,106.4419 Z M119.487067,104.487067 C131.913474,104.487067 141.987067,94.4134739 141.987067,81.987067 C141.987067,69.5606602 131.913474,59.487067 119.487067,59.487067 C107.06066,59.487067 96.987067,69.5606602 96.987067,81.987067 C96.987067,94.4134739 107.06066,104.487067 119.487067,104.487067 Z" id="Combined-Shape" fill="#3F335D" fill-rule="nonzero" transform="translate(119.487067, 94.487067) rotate(-45.000000) translate(-119.487067, -94.487067) "></path>
        </g>
    </g>
</svg>