<?xml version="1.0" encoding="UTF-8" standalone="no"?>
<svg width="220px" height="140px" viewBox="0 0 220 140" version="1.1" xmlns="http://www.w3.org/2000/svg" xmlns:xlink="http://www.w3.org/1999/xlink">
    <!-- Generator: Sketch 42 (36781) - http://www.bohemiancoding.com/sketch -->
    <title>work4</title>
    <desc>Created with Sketch.</desc>
    <defs>
        <path d="M75,85.2658241 L75,21.0012581 L75,21.0012581 C75,19.8959938 75.8982764,19 76.9994177,19 L129.366723,19 L145,34.0469683 L145,118.999608 C145,120.104394 144.102184,121 142.999201,121 L77.0007992,121 C75.8957883,121 75,120.099682 75,118.999085 L75,112.734219" id="path-1"></path>
        <mask id="mask-2" maskContentUnits="userSpaceOnUse" maskUnits="objectBoundingBox" x="0" y="0" width="70" height="102" fill="white">
            <use xlink:href="#path-1"></use>
        </mask>
        <rect id="path-3" x="83" y="37" width="9" height="9"></rect>
        <mask id="mask-4" maskContentUnits="userSpaceOnUse" maskUnits="objectBoundingBox" x="0" y="0" width="9" height="9" fill="white">
            <use xlink:href="#path-3"></use>
        </mask>
        <rect id="path-5" x="83" y="54" width="9" height="9"></rect>
        <mask id="mask-6" maskContentUnits="userSpaceOnUse" maskUnits="objectBoundingBox" x="0" y="0" width="9" height="9" fill="white">
            <use xlink:href="#path-5"></use>
        </mask>
        <rect id="path-7" x="83" y="71" width="9" height="9"></rect>
        <mask id="mask-8" maskContentUnits="userSpaceOnUse" maskUnits="objectBoundingBox" x="0" y="0" width="9" height="9" fill="white">
            <use xlink:href="#path-7"></use>
        </mask>
        <polygon id="path-9" points="130 21 143 34 130 34"></polygon>
        <mask id="mask-10" maskContentUnits="userSpaceOnUse" maskUnits="objectBoundingBox" x="-2" y="-2" width="17" height="17">
            <rect x="128" y="19" width="17" height="17" fill="white"></rect>
            <use xlink:href="#path-9" fill="black"></use>
        </mask>
    </defs>
    <g id="logo" stroke="none" stroke-width="1" fill="none" fill-rule="evenodd">
        <g id="work4">
            <use id="Rectangle-11" stroke="#7100D8" mask="url(#mask-2)" stroke-width="4" fill="#FFFFFF" xlink:href="#path-1"></use>
            <use id="Rectangle-12" stroke="#7100D8" mask="url(#mask-4)" stroke-width="4" fill="#FFFFFF" xlink:href="#path-3"></use>
            <use id="Rectangle-12" stroke="#7100D8" mask="url(#mask-6)" stroke-width="4" fill="#FFFFFF" xlink:href="#path-5"></use>
            <use id="Rectangle-12" stroke="#7100D8" mask="url(#mask-8)" stroke-width="4" fill="#FFFFFF" xlink:href="#path-7"></use>
            <rect id="Rectangle" fill="#EBD6FE" x="96" y="39" width="39" height="3" rx="1.5"></rect>
            <rect id="Rectangle" fill="#EBD6FE" x="96" y="56" width="39" height="3" rx="1.5"></rect>
            <rect id="Rectangle" fill="#EBD6FE" x="96" y="73" width="39" height="3" rx="1.5"></rect>
            <rect id="Rectangle" fill="#EBD6FE" x="96" y="46" width="28" height="3" rx="1.5"></rect>
            <rect id="Rectangle" fill="#EBD6FE" x="96" y="63" width="35" height="3" rx="1.5"></rect>
            <rect id="Rectangle" fill="#EBD6FE" x="96" y="80" width="35" height="3" rx="1.5"></rect>
            <g id="Rectangle-13">
                <use fill="#EBD6FE" fill-rule="evenodd" xlink:href="#path-9"></use>
                <use stroke="#7100D8" mask="url(#mask-10)" stroke-width="4" stroke-linecap="round" stroke-linejoin="round" xlink:href="#path-9"></use>
            </g>
            <g id="icon" transform="translate(59.000000, 82.000000)" fill-rule="nonzero">
                <path d="M30.01675,3.9620625 C19.59025,3.9620625 17.82625,0.334125 17.8105,0.30009375 C17.734,0.12271875 17.545,0.004125 17.33125,0 L17.32225,0 C17.11525,0 16.924,0.11859375 16.84075,0.29184375 C16.828375,0.33 15.026125,3.9620625 4.639,3.9620625 C4.34875,3.9620625 4.11925,4.17759375 4.11925,4.43746875 L4.11925,20.6940938 C4.11925,27.34875 16.58875,32.4328125 17.116375,32.6462813 C17.186125,32.674125 17.2525,32.6844375 17.327875,32.6844375 C17.3965,32.6844375 17.47075,32.674125 17.537125,32.6462813 C18.06925,32.4328125 30.5365,27.34875 30.5365,20.6940938 L30.5365,4.43746875 C30.53425,4.17759375 30.303625,3.9620625 30.01675,3.9620625 Z" id="Shape" fill="#EBD6FE"></path>
                <g id="Capa_1" fill="#7100D8">
                    <path d="M26.01675,3.9620625 C26.303625,3.9620625 26.53425,4.17759375 26.5365,4.43746875 L26.5365,20.6940938 C26.5365,27.34875 14.06925,32.4328125 13.537125,32.6462813 C13.47075,32.674125 13.3965,32.6844375 13.327875,32.6844375 C13.2525,32.6844375 13.186125,32.674125 13.116375,32.6462813 C12.58875,32.4328125 0.11925,27.34875 0.11925,20.6940938 L0.11925,4.43746875 C0.11925,4.17759375 0.34875,3.9620625 0.639,3.9620625 C11.026125,3.9620625 12.828375,0.33 12.84075,0.29184375 C12.924,0.11859375 13.11525,0 13.32225,0 L13.33125,0 C13.545,0.004125 13.734,0.12271875 13.8105,0.30009375 C13.82625,0.334125 15.59025,3.9620625 26.01675,3.9620625 Z M24.66775,20.3149083 L24.6665162,6.35981525 C24.6665162,6.13475134 24.4691098,5.94927154 24.2211179,5.94927154 C15.2712034,5.94927154 13.756109,2.83683 13.7413035,2.80855564 C13.6759126,2.65361214 13.5142861,2.55182445 13.3316852,2.5495625 L13.3242824,2.5495625 C13.1453828,2.5495625 12.9825225,2.6513502 12.9121965,2.80176979 C12.897391,2.8323061 11.3514518,5.94927154 2.43238207,5.94927154 C2.18439023,5.94927154 1.98575,6.13475134 1.98575,6.35981525 L1.98575,20.3149083 C1.98575,26.0251981 12.6962832,30.3941522 13.1466166,30.5751081 C13.2058386,30.6011205 13.2638267,30.6101683 13.32675,30.6101683 C13.3847381,30.6101683 13.450129,30.6011205 13.5056496,30.5751081 C13.9609182,30.3941522 24.66775,26.0251981 24.66775,20.3149083 Z" id="Combined-Shape"></path>
                </g>
            </g>
            <g id="Group-2" transform="translate(67.000000, 92.000000)" fill="#7100D8">
                <path d="M0,2.89655318 L5.06255624,0.00258352333 L5.06772036,2.16893137 L1.90943234,3.97400947 L1.91459646,6.16449844 L3.4117601,5.30854751 L4.64813583,6.00398117 L3.28480889,6.78284992 L1.9180392,7.56468338 L1.9180392,7.56595396 L0.0133406361,8.65442199 L0,2.89655318 Z M5.91033215,0 L10.5614804,2.62460559 L8.65678182,3.71349714 L5.91549626,2.16634784 L5.91033215,0 Z M0.438433551,9.37539441 L2.34313212,8.28692638 L5.08484801,9.83407568 L5.09001213,12 L0.438433551,9.37539441 Z M9.08239114,4.43421545 L10.9866594,3.34532389 L11,9.10361623 L5.93787411,11.9975859 L5.93270999,9.83123804 L9.09056766,8.02615994 L9.08540354,5.83524745 L7.58867024,6.69119837 L6.35918,5.99195296 L9.08239114,4.43548603 L9.08239114,4.43421545 Z" id="Combined-Shape"></path>
            </g>
            <path d="M100.252959,35.001044 C95.7799588,37.743044 92.5559588,41.206044 91.2469588,42.745044 L87.8859588,40.112044 C87.7969588,40.048044 85.9519588,41.686044 86.0009588,41.737044 L92.1219588,47.960044 C92.1669588,48.011044 92.2289588,48.034044 92.2959588,48.034044 C92.3079588,48.034044 92.3269588,48.034044 92.3429588,48.030044 C92.4229588,48.012044 92.4909588,47.958044 92.5209588,47.878044 C93.5069588,45.357044 96.7629588,40.079044 100.920959,36.251044 C100.994959,36.181044 101.020959,36.071044 100.979959,35.976044 C100.978959,35.975044 100.314959,34.963044 100.252959,35.001044 Z" id="Shape" fill="#3F335D" fill-rule="nonzero"></path>
            <path d="M100.252959,53.001044 C95.7799588,55.743044 92.5559588,59.206044 91.2469588,60.745044 L87.8859588,58.112044 C87.7969588,58.048044 85.9519588,59.686044 86.0009588,59.737044 L92.1219588,65.960044 C92.1669588,66.011044 92.2289588,66.034044 92.2959588,66.034044 C92.3079588,66.034044 92.3269588,66.034044 92.3429588,66.030044 C92.4229588,66.012044 92.4909588,65.958044 92.5209588,65.878044 C93.5069588,63.357044 96.7629588,58.079044 100.920959,54.251044 C100.994959,54.181044 101.020959,54.071044 100.979959,53.976044 C100.978959,53.975044 100.314959,52.963044 100.252959,53.001044 Z" id="Shape" fill="#3F335D" fill-rule="nonzero"></path>
            <path d="M100.252959,70.001044 C95.7799588,72.743044 92.5559588,76.206044 91.2469588,77.745044 L87.8859588,75.112044 C87.7969588,75.048044 85.9519588,76.686044 86.0009588,76.737044 L92.1219588,82.960044 C92.1669588,83.011044 92.2289588,83.034044 92.2959588,83.034044 C92.3079588,83.034044 92.3269588,83.034044 92.3429588,83.030044 C92.4229588,83.012044 92.4909588,82.958044 92.5209588,82.878044 C93.5069588,80.357044 96.7629588,75.079044 100.920959,71.251044 C100.994959,71.181044 101.020959,71.071044 100.979959,70.976044 C100.978959,70.975044 100.314959,69.963044 100.252959,70.001044 Z" id="Shape" fill="#3F335D" fill-rule="nonzero"></path>
            <g id="chip" transform="translate(124.000000, 98.000000)" fill-rule="nonzero" fill="#7100D8">
                <g id="Capa_1">
                    <path d="M13.3755601,7.58167006 C13.7034623,7.58167006 13.9714868,7.31364562 13.9714868,6.98574338 C13.9714868,6.65784114 13.7034623,6.3898167 13.3755601,6.3898167 L11.6818737,6.3898167 L11.6818737,5.56008147 L13.3755601,5.56008147 C13.7034623,5.56008147 13.9714868,5.29205703 13.9714868,4.96415479 C13.9714868,4.63625255 13.7034623,4.36822811 13.3755601,4.36822811 L11.6818737,4.36822811 L11.6818737,2.91120163 C11.6818737,2.58329939 11.4138493,2.31527495 11.085947,2.31527495 L9.60040733,2.31527495 L9.60040733,0.59592668 C9.60040733,0.26802444 9.33238289,0 9.00448065,0 C8.67657841,0 8.40855397,0.26802444 8.40855397,0.59592668 L8.40855397,2.3209776 L7.57596741,2.3209776 L7.57596741,0.59592668 C7.57596741,0.26802444 7.30794297,0 6.98004073,0 C6.65213849,0 6.38411405,0.26802444 6.38411405,0.59592668 L6.38411405,2.3209776 L5.56008147,2.3209776 L5.56008147,0.59592668 C5.56008147,0.26802444 5.29205703,0 4.96415479,0 C4.63625255,0 4.36822811,0.26802444 4.36822811,0.59592668 L4.36822811,2.3209776 L2.97107943,2.3209776 C2.64317719,2.3209776 2.37515275,2.58900204 2.37515275,2.91690428 L2.37515275,4.37393075 L0.59592668,4.37393075 C0.26802444,4.37393075 0,4.64195519 0,4.96985743 C0,5.29775967 0.26802444,5.56578411 0.59592668,5.56578411 L2.3808554,5.56578411 L2.3808554,6.39837067 L0.59592668,6.39837067 C0.26802444,6.39837067 0,6.66639511 0,6.99429735 C0,7.32219959 0.26802444,7.59022403 0.59592668,7.59022403 L2.3808554,7.59022403 L2.3808554,8.38289206 L0.59592668,8.38289206 C0.26802444,8.38289206 0,8.6509165 0,8.97881874 C0,9.30672098 0.26802444,9.57474542 0.59592668,9.57474542 L2.3808554,9.57474542 L2.3808554,11.0317719 C2.3808554,11.3596741 2.64887984,11.6276986 2.97678208,11.6276986 L4.37393075,11.6276986 L4.37393075,13.3812627 C4.37393075,13.709165 4.64195519,13.9771894 4.96985743,13.9771894 C5.29775967,13.9771894 5.56578411,13.709165 5.56578411,13.3812627 L5.56578411,11.6276986 L6.39837067,11.6276986 L6.39837067,13.3812627 C6.39837067,13.709165 6.66639511,13.9771894 6.99429735,13.9771894 C7.32219959,13.9771894 7.59022403,13.709165 7.59022403,13.3812627 L7.59022403,11.6276986 L8.4114053,11.6276986 L8.4114053,13.3812627 C8.4114053,13.709165 8.67942974,13.9771894 9.00733198,13.9771894 C9.30386965,13.9771894 9.57189409,13.709165 9.60325866,13.3812627 L9.60325866,11.6276986 L11.0887984,11.6276986 C11.4167006,11.6276986 11.6847251,11.3910387 11.6847251,11.0317719 L11.6847251,9.57474542 L13.3784114,9.57474542 C13.7063136,9.57474542 13.9743381,9.30672098 13.9743381,8.97881874 C13.9743381,8.6509165 13.7063136,8.38289206 13.3784114,8.38289206 L11.6847251,8.38289206 L11.6847251,7.58167006 L13.3755601,7.58167006 Z M10.4928717,10.4643585 L3.53564155,10.4643585 L3.53564155,3.50712831 L10.4928717,3.50712831 L10.4928717,10.4643585 Z" id="Shape"></path>
                </g>
            </g>
            <rect id="Rectangle-2" fill="#7100D8" x="128.5" y="102.5" width="5" height="5"></rect>
        </g>
    </g>
</svg>